<?xml version="1.0" encoding="UTF-8" standalone="no"?>
<!DOCTYPE svg PUBLIC "-//W3C//DTD SVG 1.1//EN" "http://www.w3.org/Graphics/SVG/1.1/DTD/svg11.dtd">
<svg width="100%" height="100%" viewBox="0 0 488 533" version="1.1" xmlns="http://www.w3.org/2000/svg" xmlns:xlink="http://www.w3.org/1999/xlink" xml:space="preserve" style="fill-rule:evenodd;clip-rule:evenodd;stroke-linejoin:round;stroke-miterlimit:1.41421;">
    <g transform="matrix(1,0,0,1,-90.9336,-5.07223)">
        <g transform="matrix(0.985842,0,0,1,3.62231,0)">
            <path d="M286.489,492.794L287.172,492.796L288.49,492.803L289.729,492.811L290.857,492.818L291.845,492.824L292.271,492.826L292.461,492.826L292.514,492.816L292.58,492.803L292.658,492.786L292.75,492.766L292.852,492.742L292.963,492.716L293.083,492.686L293.213,492.653L293.352,492.617L293.493,492.58L293.817,492.492L294.16,492.398L294.529,492.296L294.922,492.188L295.331,492.078L295.553,492.02L295.775,491.962L296.004,491.904L296.237,491.846L296.476,491.788L296.721,491.731L296.972,491.674L297.229,491.619L297.491,491.565L297.76,491.512L298.034,491.461L298.316,491.413L298.604,491.367L298.899,491.325L299.186,491.288L299.354,491.268L299.512,491.251L299.669,491.236L299.829,491.221L299.991,491.208L300.156,491.196L300.323,491.186L300.49,491.178L300.661,491.171L300.834,491.166L301.009,491.162L301.186,491.161L301.367,491.162L301.55,491.165L301.734,491.171L301.921,491.178L302.111,491.189L302.303,491.203L302.499,491.219L302.696,491.239L302.896,491.262L303.099,491.288L303.302,491.318L303.508,491.351L303.717,491.389L303.93,491.431L304.145,491.478L304.359,491.528L304.576,491.584L304.796,491.644L305.018,491.71L305.241,491.781L305.464,491.857L305.688,491.939L305.914,492.026L306.141,492.12L306.367,492.219L306.593,492.324L306.821,492.436L307.046,492.554L307.27,492.677L307.445,492.779L307.753,492.962L308.014,493.115L308.277,493.267L308.542,493.418L308.808,493.568L309.075,493.717L309.345,493.865L309.616,494.011L309.888,494.157L310.162,494.301L310.438,494.444L310.715,494.586L310.994,494.728L311.275,494.868L311.556,495.006L311.839,495.144L312.124,495.281L312.411,495.417L312.698,495.551L312.987,495.684L313.277,495.817L313.569,495.948L313.862,496.078L314.157,496.207L314.452,496.335L314.75,496.462L315.048,496.588L315.348,496.712L315.648,496.836L315.951,496.958L316.254,497.079L316.558,497.2L316.864,497.319L317.171,497.437L317.479,497.554L317.788,497.67L318.098,497.785L318.409,497.898L318.721,498.011L319.035,498.123L319.349,498.233L319.664,498.342L319.981,498.451L320.298,498.558L320.617,498.665L320.936,498.77L321.256,498.874L321.577,498.977L321.899,499.079L322.222,499.18L322.545,499.279L322.87,499.378L323.195,499.476L323.52,499.573L323.848,499.668L324.175,499.763L324.503,499.856L324.832,499.949L325.161,500.041L325.492,500.131L325.823,500.221L326.154,500.309L326.486,500.396L326.818,500.483L327.152,500.568L327.486,500.653L327.82,500.736L328.155,500.818L328.49,500.9L328.826,500.98L329.162,501.059L329.499,501.138L329.836,501.215L330.174,501.292L330.511,501.367L330.849,501.442L331.188,501.515L331.527,501.588L331.866,501.659L332.205,501.73L332.545,501.8L332.885,501.868L333.225,501.936L333.565,502.003L333.906,502.069L334.247,502.134L334.587,502.198L334.928,502.261L335.269,502.323L335.61,502.385L335.952,502.445L336.293,502.505L336.634,502.563L336.975,502.621L337.317,502.678L337.658,502.734L337.999,502.789L338.34,502.843L338.682,502.897L339.022,502.949L339.363,503.001L339.704,503.052L340.044,503.102L340.385,503.151L340.725,503.199L341.065,503.246L341.405,503.293L341.744,503.339L342.083,503.384L342.422,503.428L342.761,503.471L343.099,503.514L343.437,503.556L343.774,503.596L344.111,503.637L344.448,503.676L344.785,503.715L345.117,503.752L345.791,503.826L346.459,503.896L347.126,503.963L347.789,504.028L348.398,504.085L348.434,504.086L348.515,504.088L348.626,504.089L348.764,504.09L348.926,504.09L349.108,504.088L349.31,504.085L349.528,504.081L349.761,504.076L350.006,504.071L350.548,504.056L351.129,504.038L352.407,503.998L353.092,503.977L353.803,503.956L354.53,503.938L354.906,503.929L355.282,503.921L355.661,503.915L356.043,503.909L356.428,503.904L356.815,503.901L357.203,503.899L357.592,503.898L357.983,503.9L358.374,503.903L358.765,503.908L359.157,503.915L359.548,503.924L359.939,503.936L360.33,503.951L360.72,503.968L361.11,503.989L361.489,504.013L361.693,504.027L361.888,504.041L362.081,504.057L362.276,504.073L362.471,504.091L362.666,504.11L362.861,504.13L363.057,504.152L363.253,504.175L363.449,504.2L363.646,504.226L363.844,504.254L364.044,504.285L364.244,504.317L364.447,504.351L364.651,504.388L364.856,504.428L365.064,504.47L365.275,504.516L365.488,504.565L365.706,504.619L365.927,504.677L366.151,504.739L366.383,504.808L366.62,504.884L366.862,504.966L367.11,505.056L367.367,505.156L367.634,505.268L367.908,505.392L368.192,505.53L368.488,505.685L368.794,505.86L369.077,506.036L369.271,506.165L369.437,506.28L369.606,506.403L369.776,506.533L369.95,506.673L370.124,506.821L370.299,506.977L370.476,507.143L370.657,507.324L370.835,507.513L371.009,507.709L371.092,507.808L371.108,507.821L371.125,507.834L371.146,507.85L371.17,507.867L371.195,507.886L371.223,507.906L371.255,507.928L371.289,507.951L371.325,507.975L371.365,508.002L371.405,508.028L371.438,508.05L371.546,508.117L371.65,508.181L371.764,508.248L371.887,508.32L372.019,508.394L372.16,508.472L372.309,508.553L372.466,508.637L372.63,508.723L372.802,508.812L372.981,508.904L373.162,508.995L373.56,509.195L373.977,509.4L374.415,509.616L374.874,509.843L375.347,510.079L375.597,510.204L375.848,510.332L376.103,510.462L376.361,510.596L376.623,510.734L376.889,510.875L377.158,511.021L377.431,511.171L377.706,511.326L377.985,511.485L378.266,511.649L378.549,511.818L378.835,511.993L379.114,512.168L379.268,512.266L379.412,512.36L379.557,512.455L379.704,512.553L379.851,512.652L379.998,512.753L380.145,512.855L380.292,512.959L380.44,513.064L380.587,513.172L380.736,513.282L380.884,513.393L381.032,513.506L381.18,513.622L381.329,513.739L381.478,513.859L381.626,513.98L381.774,514.104L381.923,514.23L382.071,514.359L382.219,514.489L382.366,514.622L382.512,514.756L382.659,514.894L382.806,515.034L382.951,515.176L383.096,515.321L383.276,515.504L383.484,515.726L383.709,515.985L383.92,516.245L384.116,516.503L384.298,516.758L384.464,517.008L384.619,517.254L384.761,517.495L384.893,517.732L385.014,517.963L385.126,518.188L385.229,518.407L385.325,518.621L385.348,518.676L385.392,518.673L385.619,518.66L385.877,518.653L387.006,518.653L387.522,518.652L388.042,518.65L388.565,518.646L389.091,518.641L389.618,518.634L390.151,518.624L390.41,518.618L390.673,518.611L390.936,518.604L391.198,518.595L391.459,518.586L391.719,518.576L391.978,518.565L392.236,518.553L392.492,518.539L392.746,518.525L392.999,518.51L393.25,518.493L393.498,518.476L393.744,518.457L393.988,518.437L394.228,518.416L394.466,518.394L394.701,518.371L394.931,518.346L395.159,518.32L395.383,518.293L395.601,518.265L395.817,518.236L396.028,518.205L396.233,518.174L396.433,518.141L396.629,518.107L396.819,518.073L397.003,518.037L397.191,517.999L397.268,517.982L397.352,517.964L397.435,517.945L397.517,517.926L397.596,517.908L397.674,517.888L397.751,517.869L397.825,517.85L397.896,517.831L397.968,517.812L398.036,517.793L398.102,517.774L398.167,517.755L398.228,517.736L398.288,517.717L398.347,517.698L398.403,517.68L398.456,517.662L398.506,517.644L398.557,517.626L398.603,517.609L398.646,517.593L398.688,517.576L398.727,517.561L398.763,517.546L398.798,517.531L398.83,517.517L398.858,517.505L398.885,517.492L398.909,517.481L398.931,517.47L398.949,517.461L398.964,517.454L398.977,517.446L398.988,517.441L399.064,517.398L399.217,517.312L399.436,517.198L399.65,517.093L399.858,516.998L400.064,516.909L400.262,516.828L400.455,516.755L400.646,516.686L400.834,516.622L401.012,516.565L401.189,516.512L401.363,516.463L401.531,516.418L401.697,516.377L401.858,516.339L402.017,516.304L402.174,516.272L402.348,516.238L402.621,516.19L402.909,516.146L403.188,516.109L403.459,516.078L403.724,516.053L403.982,516.032L404.234,516.015L404.481,516.002L404.724,515.992L404.942,515.986L404.807,515.831L404.662,515.663L404.519,515.493L404.376,515.32L404.234,515.145L404.092,514.967L403.95,514.784L403.809,514.599L403.67,514.411L403.53,514.219L403.392,514.023L403.255,513.824L403.119,513.62L402.984,513.41L402.85,513.196L402.718,512.978L402.588,512.754L402.458,512.523L402.331,512.286L402.207,512.044L402.085,511.794L401.966,511.536L401.85,511.269L401.738,510.996L401.638,510.734L401.578,510.568L401.528,510.423L401.478,510.274L401.43,510.122L401.383,509.966L401.338,509.811L401.295,509.652L401.253,509.486L401.214,509.323L401.177,509.157L401.142,508.987L401.109,508.813L401.078,508.638L401.051,508.462L401.025,508.278L401.003,508.094L400.984,507.91L400.968,507.723L400.956,507.532L400.946,507.336L400.941,507.14L400.939,506.943L400.942,506.742L400.948,506.541L400.959,506.336L400.974,506.128L400.993,505.922L401.017,505.714L401.046,505.503L401.08,505.292L401.119,505.08L401.162,504.87L401.21,504.656L401.265,504.441L401.323,504.232L401.386,504.021L401.457,503.805L401.53,503.597L401.608,503.39L401.693,503.18L401.782,502.975L401.875,502.773L401.972,502.572L402.076,502.372L402.183,502.176L402.292,501.985L402.409,501.793L402.526,501.607L402.648,501.425L402.775,501.244L402.903,501.069L403.036,500.894L403.171,500.726L403.306,500.564L403.447,500.402L403.589,500.246L403.615,500.217L403.609,500.154L403.595,499.992L403.583,499.832L403.574,499.672L403.566,499.512L403.561,499.354L403.557,499.199L403.556,499.044L403.556,498.892L403.559,498.72L403.567,498.444L403.583,498.152L403.604,497.866L403.631,497.585L403.663,497.311L403.699,497.043L403.739,496.778L403.783,496.521L403.831,496.269L403.882,496.021L403.935,495.779L403.991,495.542L404.05,495.31L404.111,495.081L404.174,494.858L404.238,494.64L404.304,494.426L404.372,494.215L404.44,494.009L404.51,493.808L404.58,493.61L404.651,493.416L404.723,493.226L404.795,493.04L404.867,492.859L404.94,492.681L405.013,492.505L405.086,492.334L405.158,492.168L405.23,492.005L405.301,491.845L405.376,491.68L405.512,491.39L405.647,491.107L405.778,490.838L405.903,490.587L406.021,490.354L406.131,490.138L406.317,489.773L406.392,489.627L406.503,489.407L406.644,489.143L406.858,488.788L407.093,488.44L407.351,488.099L407.627,487.774L407.914,487.47L408.221,487.178L408.541,486.904L408.864,486.655L409.195,486.426L409.53,486.218L409.857,486.036L410.187,485.871L410.514,485.726L410.827,485.603L411.136,485.495L411.437,485.403L411.726,485.327L412.006,485.263L412.271,485.211L412.528,485.17L412.828,485.13L413.238,485.094L413.668,485.078L414.061,485.081L414.422,485.099L414.756,485.127L415.068,485.165L415.357,485.209L415.629,485.257L415.883,485.31L416.124,485.365L416.355,485.423L416.573,485.482L416.783,485.544L416.984,485.606L417.179,485.67L417.367,485.735L417.551,485.8L417.728,485.867L417.903,485.934L418.074,486.002L418.241,486.07L418.407,486.14L418.569,486.21L418.729,486.281L418.887,486.353L419.044,486.425L419.2,486.498L419.354,486.572L419.517,486.652L419.809,486.798L420.11,486.952L420.408,487.109L420.703,487.268L420.997,487.43L421.29,487.594L421.581,487.761L421.871,487.929L422.159,488.099L422.446,488.271L422.732,488.445L423.016,488.62L423.298,488.795L423.578,488.972L423.855,489.149L424.13,489.326L424.402,489.503L424.671,489.68L424.937,489.856L425.2,490.032L425.458,490.207L425.712,490.38L425.962,490.553L426.208,490.723L426.448,490.891L426.683,491.058L426.81,491.148L426.761,491.04L426.585,490.55L426.482,490.211L426.416,489.961L426.369,489.765L426.327,489.578L426.277,489.332L426.234,489.099L426.195,488.886L426.16,488.686L426.087,488.274L426.05,488.075L426.012,487.87L425.972,487.666L425.928,487.452L425.908,487.358L425.885,487.257L425.863,487.158L425.84,487.059L425.817,486.961L425.793,486.865L425.769,486.771L425.745,486.68L425.721,486.592L425.697,486.505L425.673,486.423L425.65,486.344L425.626,486.269L425.603,486.197L425.581,486.131L425.559,486.071L425.539,486.016L425.534,486.002L425.383,485.829L425.378,485.823L424.963,485.269L424.602,484.679L424.597,484.67L424.385,484.255L424.2,483.827L424.083,483.533L423.928,483.025L423.835,482.644L423.765,482.291L423.709,481.913L423.675,481.59L423.657,481.337L423.646,481.125L423.639,480.939L423.636,480.774L423.634,480.606L423.635,480.335L423.639,480.067L423.645,479.815L423.653,479.577L423.661,479.356L423.67,479.155L423.679,478.97L423.694,478.691L423.701,478.575L423.786,477.838L423.944,477.112L424.175,476.406L424.475,475.725L424.841,475.078L425.271,474.468L425.76,473.904L426.303,473.39L426.895,472.932L427.529,472.533L428.201,472.199L428.903,471.931L429.628,471.733L430.37,471.607L431.121,471.553L431.873,471.573L432.62,471.666L433.353,471.831L434.067,472.067L434.753,472.371L435.406,472.741L436.018,473.172L436.584,473.661L437.098,474.203L437.556,474.792L437.952,475.423L438.283,476.089L438.546,476.785L438.737,477.502L438.856,478.235L438.869,478.449L438.885,478.5L438.907,478.57L438.935,478.652L438.968,478.745L439.005,478.847L439.047,478.958L439.093,479.078L439.144,479.206L439.2,479.341L439.26,479.483L439.324,479.632L439.392,479.788L439.464,479.948L439.54,480.115L439.62,480.287L439.704,480.464L439.792,480.646L439.882,480.833L439.977,481.024L440.074,481.219L440.175,481.417L440.279,481.62L440.386,481.827L440.497,482.036L440.61,482.249L440.726,482.465L440.844,482.684L440.965,482.905L441.089,483.129L441.215,483.356L441.344,483.584L441.475,483.815L441.608,484.048L441.744,484.283L441.881,484.519L442.02,484.758L442.162,484.997L442.305,485.238L442.45,485.481L442.596,485.725L442.745,485.969L442.894,486.215L443.045,486.461L443.198,486.707L443.352,486.954L443.507,487.203L443.663,487.451L443.82,487.699L443.979,487.948L444.138,488.196L444.298,488.444L444.459,488.692L444.621,488.94L444.783,489.188L444.946,489.434L445.109,489.68L445.272,489.925L445.436,490.17L445.6,490.413L445.765,490.655L445.929,490.897L446.094,491.136L446.258,491.374L446.422,491.611L446.587,491.846L446.75,492.079L446.913,492.31L447.076,492.54L447.239,492.768L447.4,492.993L447.561,493.215L447.722,493.436L447.881,493.653L448.039,493.868L448.196,494.08L448.353,494.29L448.507,494.496L448.661,494.699L448.813,494.898L448.964,495.094L449.113,495.287L449.26,495.476L449.405,495.661L449.548,495.842L449.689,496.019L449.828,496.192L449.965,496.36L450.099,496.524L450.231,496.683L450.359,496.837L450.485,496.986L450.607,497.129L450.726,497.267L450.842,497.399L450.953,497.526L451.061,497.646L451.164,497.759L451.263,497.867L451.357,497.967L451.445,498.059L451.527,498.145L451.604,498.222L451.673,498.291L451.734,498.351L451.763,498.378L452.234,498.685L452.693,499.034L453.102,499.392L453.463,499.752L453.782,500.109L454.06,500.459L454.301,500.797L454.511,501.122L454.694,501.435L454.853,501.733L454.991,502.019L455.113,502.293L455.219,502.554L455.312,502.805L455.393,503.042L455.465,503.269L455.529,503.492L455.585,503.706L455.635,503.908L455.679,504.106L455.719,504.3L455.754,504.488L455.785,504.67L455.812,504.846L455.836,505.019L455.858,505.188L455.877,505.355L455.894,505.519L455.909,505.68L455.922,505.84L455.932,505.996L455.942,506.151L455.95,506.32L455.961,506.603L455.967,506.899L455.969,507.19L455.967,507.479L455.961,507.765L455.951,508.047L455.938,508.328L455.923,508.608L455.904,508.885L455.883,509.16L455.859,509.435L455.832,509.709L455.803,509.98L455.772,510.251L455.739,510.521L455.703,510.789L455.666,511.055L455.626,511.32L455.584,511.584L455.54,511.846L455.494,512.107L455.446,512.366L455.396,512.624L455.343,512.88L455.289,513.136L455.231,513.39L455.172,513.643L455.109,513.896L455.043,514.149L454.973,514.403L454.899,514.659L454.82,514.918L454.735,515.182L454.642,515.45L454.548,515.707L454.484,515.871L454.425,516.019L454.362,516.169L454.294,516.326L454.221,516.488L454.141,516.656L454.053,516.833L453.955,517.021L453.847,517.216L453.728,517.421L453.591,517.642L453.434,517.878L453.252,518.133L453.04,518.407L452.794,518.698L452.497,519.016L452.141,519.356L451.711,519.717L451.19,520.091L450.887,520.271L450.552,520.449L450.64,520.573L450.75,520.734L450.861,520.901L450.973,521.075L451.086,521.258L451.2,521.45L451.314,521.651L451.429,521.864L451.544,522.089L451.658,522.327L451.771,522.581L451.883,522.851L451.99,523.135L452.094,523.44L452.193,523.77L452.282,524.117L452.362,524.487L452.429,524.884L452.479,525.303L452.506,525.694L452.514,525.975L452.514,526.214L452.507,526.451L452.493,526.696L452.471,526.949L452.44,527.204L452.401,527.461L452.354,527.718L452.298,527.98L452.231,528.247L452.156,528.506L452.071,528.769L451.976,529.032L451.873,529.289L451.76,529.545L451.638,529.798L451.508,530.047L451.373,530.285L451.229,530.52L451.077,530.75L450.921,530.971L450.758,531.186L450.592,531.392L450.423,531.588L450.252,531.775L450.154,531.876L449.647,532.353L449.097,532.781L448.51,533.159L448.507,533.16L447.939,533.458L447.347,533.708L446.736,533.907L446.731,533.909L446.135,534.051L445.529,534.145L445.192,534.183L444.683,534.199L444.358,534.196L444.049,534.182L443.788,534.164L443.559,534.145L443.333,534.125L443.102,534.103L442.855,534.078L442.337,534.025L441.768,533.964L440.536,533.832L439.901,533.764L439.276,533.699L438.672,533.638L438.393,533.611L438.124,533.585L437.872,533.562L437.641,533.543L437.436,533.526L437.261,533.513L437.124,533.504L437.028,533.499L436.987,533.499L436.841,533.501L436.646,533.505L436.412,533.51L435.843,533.525L435.182,533.541L434.816,533.549L434.437,533.556L434.041,533.563L433.634,533.569L433.216,533.573L432.789,533.576L432.355,533.576L431.916,533.573L431.48,533.568L431.25,533.564L431.026,533.559L430.803,533.553L430.577,533.546L430.351,533.538L430.126,533.529L429.899,533.518L429.671,533.506L429.443,533.491L429.213,533.476L428.982,533.458L428.748,533.438L428.512,533.415L428.273,533.389L428.028,533.36L427.778,533.326L427.521,533.288L427.255,533.243L426.975,533.191L426.705,533.134L426.529,533.094L426.373,533.056L426.207,533.013L426.034,532.965L425.854,532.912L425.663,532.852L425.466,532.786L425.258,532.71L425.037,532.624L424.8,532.525L424.55,532.411L424.281,532.278L423.995,532.123L423.691,531.943L423.362,531.728L423.045,531.498L422.966,531.536L422.666,531.68L422.364,531.822L422.195,531.899L422.031,531.973L421.863,532.048L421.693,532.123L421.519,532.197L421.341,532.272L421.161,532.346L420.976,532.42L420.785,532.494L420.591,532.567L420.393,532.639L420.191,532.711L419.983,532.781L419.77,532.85L419.553,532.918L419.33,532.984L419.1,533.048L418.864,533.11L418.624,533.169L418.376,533.225L418.121,533.278L417.86,533.327L417.591,533.372L417.315,533.412L417.033,533.447L416.741,533.476L416.442,533.499L416.136,533.514L415.822,533.522L415.528,533.521L415.339,533.517L415.175,533.511L415.005,533.502L414.838,533.491L414.67,533.477L414.494,533.46L414.32,533.44L414.149,533.418L413.973,533.392L413.796,533.363L413.618,533.331L413.436,533.295L413.258,533.257L413.076,533.214L412.894,533.168L412.715,533.12L412.532,533.067L412.351,533.011L412.17,532.951L411.985,532.887L411.803,532.819L411.622,532.748L411.443,532.674L411.263,532.596L411.083,532.514L410.909,532.43L410.732,532.341L410.557,532.249L410.384,532.153L410.211,532.054L410.043,531.953L409.877,531.848L409.711,531.74L409.548,531.629L409.39,531.517L409.232,531.4L409.076,531.281L409.009,531.228L408.549,531.184L408.237,531.155L407.928,531.126L407.623,531.099L407.325,531.073L407.034,531.051L406.745,531.03L406.617,531.021L406.482,531.013L406.352,531.006L406.227,530.999L406.104,530.994L405.986,530.989L405.873,530.985L405.766,530.983L405.664,530.981L405.568,530.98L405.544,530.98L405.404,531.046L405.228,531.127L405.049,531.207L404.872,531.285L404.696,531.359L404.519,531.432L404.342,531.503L404.167,531.571L403.99,531.638L403.814,531.703L403.64,531.765L403.465,531.826L403.289,531.885L403.115,531.943L402.941,531.999L402.767,532.053L402.592,532.106L402.419,532.157L402.245,532.207L402.072,532.256L401.9,532.303L401.726,532.349L401.553,532.393L401.381,532.437L401.209,532.479L401.036,532.52L400.865,532.559L400.693,532.598L400.521,532.636L400.34,532.674L400.008,532.742L399.666,532.808L399.325,532.87L398.985,532.929L398.644,532.984L398.305,533.036L397.967,533.085L397.629,533.132L397.291,533.175L396.955,533.216L396.62,533.254L396.285,533.289L395.951,533.323L395.618,533.354L395.286,533.383L394.955,533.41L394.625,533.435L394.296,533.458L393.969,533.479L393.643,533.499L393.318,533.517L392.995,533.534L392.674,533.549L392.354,533.563L392.036,533.575L391.72,533.587L391.406,533.597L391.094,533.606L390.784,533.614L390.472,533.621L389.871,533.632L389.275,533.64L388.691,533.646L388.12,533.65L387.563,533.652L387.021,533.653L386.207,533.653L386.168,533.655L385.459,533.707L384.981,533.741L384.712,533.758L384.435,533.776L384.147,533.794L383.848,533.811L383.542,533.827L383.229,533.842L382.91,533.855L382.586,533.867L382.258,533.876L381.926,533.883L381.6,533.886L381.418,533.886L381.246,533.885L381.071,533.883L380.893,533.879L380.712,533.874L380.527,533.867L380.336,533.858L380.138,533.845L379.933,533.83L379.718,533.811L379.487,533.787L379.239,533.755L378.969,533.714L378.667,533.66L378.328,533.588L377.989,533.501L377.724,533.424L377.486,533.347L377.228,533.254L376.939,533.139L376.62,532.998L376.265,532.821L375.879,532.602L375.457,532.329L374.989,531.979L374.747,531.766L374.259,531.295L374.248,531.283L373.98,530.984L373.727,530.671L373.554,530.443L373.302,530.058L373.151,529.811L373.011,529.569L372.882,529.332L372.763,529.1L372.655,528.878L372.555,528.66L372.463,528.448L372.378,528.241L372.299,528.042L372.228,527.85L372.16,527.661L372.098,527.479L372.041,527.305L371.987,527.133L371.937,526.968L371.891,526.809L371.844,526.641L371.769,526.364L371.7,526.091L371.638,525.836L371.582,525.602L371.533,525.388L371.488,525.194L371.447,525.165L371.39,525.124L371.332,525.083L371.272,525.041L371.211,524.999L371.149,524.957L371.086,524.915L371.02,524.872L370.952,524.828L370.893,524.79L370.743,524.696L370.597,524.607L370.445,524.516L370.288,524.424L370.125,524.332L369.959,524.238L369.787,524.143L369.61,524.048L369.428,523.951L369.242,523.853L369.052,523.754L368.858,523.655L368.66,523.554L368.461,523.455L368.039,523.244L367.608,523.032L367.164,522.813L366.707,522.587L366.245,522.356L366.001,522.232L365.759,522.109L365.515,521.982L365.266,521.852L365.016,521.718L364.764,521.581L364.508,521.439L364.249,521.293L363.988,521.142L363.724,520.985L363.457,520.822L363.201,520.661L363.055,520.568L362.917,520.478L362.782,520.388L362.644,520.295L362.506,520.2L362.369,520.104L362.229,520.005L362.089,519.903L361.95,519.8L361.809,519.694L361.668,519.585L361.527,519.474L361.386,519.36L361.243,519.243L361.101,519.122L360.981,519.019L360.917,519.013L360.81,519.004L360.699,518.995L360.585,518.987L360.477,518.979L360.221,518.964L359.963,518.95L359.694,518.938L359.415,518.927L359.126,518.918L358.83,518.911L358.527,518.906L358.216,518.902L357.9,518.899L357.578,518.898L357.252,518.899L356.922,518.9L356.589,518.903L356.254,518.907L355.917,518.913L355.578,518.919L355.239,518.926L354.903,518.933L354.221,518.951L353.549,518.97L352.887,518.99L351.606,519.031L350.992,519.049L350.405,519.065L350.114,519.072L349.831,519.079L349.553,519.084L349.28,519.087L349.012,519.09L348.746,519.09L348.481,519.089L348.216,519.085L347.946,519.079L347.667,519.068L347.392,519.053L347.216,519.04L347.07,519.028L346.33,518.959L345.604,518.888L344.875,518.815L344.144,518.738L343.414,518.658L343.041,518.616L342.672,518.573L342.303,518.53L341.933,518.486L341.562,518.441L341.191,518.395L340.819,518.349L340.446,518.301L340.073,518.252L339.7,518.203L339.325,518.152L338.95,518.101L338.575,518.049L338.2,517.995L337.824,517.941L337.447,517.886L337.07,517.83L336.693,517.772L336.315,517.714L335.937,517.655L335.558,517.595L335.179,517.534L334.8,517.472L334.421,517.408L334.041,517.344L333.661,517.279L333.28,517.212L332.9,517.145L332.519,517.076L332.138,517.007L331.757,516.936L331.375,516.864L330.994,516.792L330.612,516.718L330.23,516.643L329.848,516.567L329.466,516.489L329.083,516.411L328.701,516.331L328.318,516.25L327.936,516.169L327.554,516.086L327.171,516.001L326.788,515.916L326.406,515.829L326.024,515.741L325.641,515.652L325.259,515.562L324.877,515.47L324.495,515.378L324.112,515.284L323.73,515.188L323.348,515.092L322.967,514.994L322.586,514.895L322.204,514.795L321.823,514.693L321.442,514.59L321.062,514.486L320.681,514.38L320.301,514.273L319.921,514.165L319.542,514.055L319.163,513.944L318.783,513.832L318.405,513.718L318.027,513.603L317.649,513.486L317.272,513.368L316.895,513.249L316.518,513.128L316.142,513.006L315.766,512.882L315.391,512.757L315.017,512.63L314.642,512.502L314.268,512.372L313.895,512.241L313.523,512.108L313.151,511.974L312.779,511.838L312.408,511.701L312.038,511.562L311.668,511.422L311.3,511.28L310.931,511.136L310.563,510.991L310.197,510.844L309.831,510.696L309.465,510.546L309.1,510.394L308.736,510.241L308.373,510.086L308.011,509.929L307.649,509.77L307.288,509.61L306.928,509.448L306.57,509.285L306.211,509.12L305.854,508.952L305.498,508.784L305.142,508.613L304.788,508.441L304.434,508.266L304.082,508.09L303.73,507.913L303.38,507.733L303.031,507.551L302.682,507.368L302.335,507.182L301.989,506.995L301.644,506.806L301.3,506.615L300.957,506.422L300.64,506.241L300.639,506.241L300.533,506.262L300.42,506.285L300.3,506.311L300.174,506.34L300.042,506.37L299.904,506.404L299.761,506.439L299.612,506.477L299.458,506.517L299.305,506.558L298.966,506.649L298.617,506.745L298.251,506.846L297.868,506.951L297.477,507.056L297.265,507.113L297.053,507.167L296.837,507.222L296.615,507.278L296.388,507.332L296.155,507.386L295.917,507.439L295.67,507.491L295.416,507.541L295.155,507.589L294.884,507.635L294.603,507.678L294.331,507.715L294.164,507.736L294.009,507.753L293.851,507.768L293.694,507.782L293.53,507.795L293.36,507.806L293.19,507.814L293.014,507.821L292.832,507.825L292.673,507.826L292.23,507.825L291.772,507.824L290.762,507.818L289.629,507.81L288.403,507.803L287.108,507.796L286.448,507.794L285.78,507.793L285.11,507.793L284.442,507.794L283.933,507.796L283.934,507.909L283.931,508.18L283.926,508.351L283.92,508.507L283.911,508.665L283.9,508.826L283.887,508.99L283.871,509.158L283.852,509.331L283.829,509.507L283.803,509.687L283.774,509.871L283.74,510.059L283.702,510.251L283.659,510.448L283.611,510.649L283.558,510.852L283.499,511.062L283.433,511.275L283.361,511.492L283.282,511.713L283.203,511.914L283.064,512.254L282.917,512.602L282.755,512.983L282.574,513.401L282.377,513.855L282.363,513.888L282.37,513.902L282.495,514.184L282.61,514.464L282.716,514.746L282.812,515.027L282.899,515.307L282.977,515.587L283.046,515.865L283.106,516.141L283.158,516.415L283.203,516.687L283.239,516.954L283.269,517.219L283.291,517.481L283.307,517.74L283.317,517.995L283.32,518.246L283.319,518.494L283.311,518.738L283.299,518.978L283.282,519.215L283.26,519.448L283.234,519.677L283.204,519.902L283.17,520.124L283.133,520.344L283.092,520.558L283.048,520.771L283.001,520.98L282.951,521.184L282.898,521.387L282.842,521.586L282.784,521.783L282.724,521.977L282.661,522.167L282.596,522.356L282.529,522.542L282.46,522.725L282.389,522.905L282.316,523.084L282.241,523.261L282.165,523.434L282.086,523.606L282.007,523.776L281.925,523.943L281.842,524.109L281.758,524.273L281.672,524.434L281.584,524.595L281.494,524.754L281.404,524.911L281.312,525.065L281.219,525.218L281.124,525.371L281.028,525.521L280.931,525.67L280.832,525.817L280.731,525.963L280.63,526.107L280.526,526.251L280.422,526.393L280.316,526.534L280.209,526.673L280.1,526.811L279.99,526.948L279.878,527.084L279.765,527.218L279.65,527.351L279.533,527.484L279.416,527.614L279.297,527.744L279.174,527.874L279.052,528.001L278.927,528.128L278.799,528.255L278.671,528.379L278.54,528.502L278.407,528.625L278.272,528.747L278.134,528.868L277.995,528.986L277.852,529.105L277.706,529.224L277.558,529.34L277.408,529.455L277.254,529.57L277.095,529.684L276.935,529.796L276.771,529.907L276.603,530.017L276.43,530.126L276.253,530.233L276.071,530.339L275.884,530.444L275.693,530.547L275.498,530.647L275.295,530.746L275.085,530.844L274.869,530.938L274.647,531.03L274.419,531.118L274.181,531.203L274.038,531.251L273.985,531.287L273.614,531.514L273.27,531.7L272.918,531.871L272.485,532.054L271.933,532.245L271.617,532.326L270.885,532.478L270.871,532.48L270.41,532.538L269.947,532.568L269.934,532.568L269.355,532.567L268.778,532.522L268.767,532.52L268.094,532.412L267.435,532.245L267.424,532.242L266.732,531.997L266.067,531.688L266.057,531.683L265.615,531.431L265.191,531.151L264.787,530.844L264.778,530.837L264.654,530.726L264.613,530.792L264.505,530.956L264.391,531.124L264.271,531.293L264.146,531.463L264.01,531.638L263.866,531.817L263.715,531.994L263.554,532.175L263.381,532.36L263.198,532.544L263.005,532.729L262.795,532.917L262.574,533.105L262.34,533.289L262.09,533.473L261.826,533.654L261.547,533.83L261.249,534.003L260.936,534.168L260.608,534.324L260.268,534.469L259.913,534.602L259.543,534.723L259.161,534.828L258.769,534.917L258.372,534.987L257.973,535.039L257.564,535.073L257.158,535.087L256.757,535.082L256.357,535.059L255.963,535.018L255.581,534.96L255.209,534.887L254.848,534.801L254.5,534.702L254.165,534.591L253.846,534.473L253.538,534.345L253.244,534.21L252.966,534.071L252.699,533.926L252.447,533.778L252.209,533.629L251.98,533.477L251.763,533.324L251.558,533.17L251.361,533.015L251.174,532.86L250.996,532.706L250.823,532.55L250.661,532.396L250.434,532.174L250.116,531.833L249.768,531.399L249.457,530.95L249.175,530.474L248.938,530.001L248.742,529.532L248.582,529.067L248.458,528.613L248.366,528.18L248.302,527.769L248.262,527.376L248.243,527.007L248.24,526.66L248.252,526.332L248.276,526.026L248.316,525.679L248.39,525.231L248.494,524.776L248.609,524.376L248.727,524.023L248.848,523.706L248.969,523.421L249.089,523.163L249.206,522.926L249.322,522.707L249.437,522.502L249.549,522.313L249.659,522.134L249.767,521.965L249.874,521.804L249.98,521.649L250.084,521.502L250.188,521.359L250.291,521.221L250.394,521.087L250.496,520.957L250.596,520.832L250.697,520.708L250.799,520.587L250.899,520.469L250.999,520.353L251.111,520.226L251.302,520.015L251.505,519.798L251.709,519.586L251.915,519.379L252.124,519.175L252.336,518.975L252.447,518.874L252.494,518.557L252.559,518.097L252.622,517.628L252.685,517.15L252.747,516.666L252.809,516.177L252.869,515.683L252.929,515.186L252.989,514.688L253.108,513.685L253.226,512.691L253.285,512.195L253.346,511.703L253.407,511.215L253.469,510.731L253.533,510.253L253.598,509.78L253.664,509.32L253.699,509.082L253.735,508.852L253.771,508.623L253.808,508.395L253.845,508.168L253.884,507.943L253.924,507.718L253.966,507.493L254.009,507.27L254.054,507.046L254.1,506.822L254.149,506.598L254.201,506.371L254.255,506.144L254.313,505.913L254.375,505.679L254.442,505.441L254.515,505.197L254.595,504.945L254.683,504.684L254.783,504.411L254.885,504.15L254.957,503.978L255.024,503.825L255.096,503.666L255.175,503.5L255.261,503.329L255.354,503.151L255.456,502.966L255.541,502.821L255.927,502.176L256.284,501.574L256.64,500.97L256.995,500.363L257.348,499.754L257.7,499.143L258.051,498.53L258.401,497.915L258.749,497.298L259.096,496.679L259.442,496.058L259.786,495.435L260.129,494.811L260.471,494.184L260.812,493.557L261.152,492.927L261.491,492.297L261.828,491.664L262.165,491.031L262.5,490.396L262.834,489.76L263.167,489.122L263.5,488.484L263.831,487.844L264.161,487.203L264.49,486.562L264.818,485.919L265.145,485.276L265.472,484.632L265.797,483.987L266.075,483.435L266.072,483.373L266.063,483.184L266.052,482.984L266.038,482.762L266.005,482.252L265.987,481.967L265.97,481.661L265.954,481.347L265.947,481.166L265.941,480.989L265.936,480.807L265.932,480.62L265.93,480.427L265.93,480.228L265.932,480.022L265.937,479.811L265.945,479.594L265.956,479.37L265.97,479.139L265.989,478.901L266.013,478.655L266.042,478.403L266.077,478.144L266.118,477.876L266.168,477.601L266.225,477.318L266.291,477.028L266.361,476.755L266.41,476.579L266.454,476.426L266.502,476.27L266.561,476.091L266.647,475.844L266.743,475.589L266.841,475.347L266.94,475.118L267.039,474.901L267.138,474.695L267.237,474.499L267.334,474.311L267.431,474.131L267.527,473.959L267.622,473.794L267.715,473.635L267.807,473.482L267.898,473.334L267.987,473.192L268.081,473.045L268.244,472.795L268.407,472.549L268.564,472.319L268.714,472.1L268.984,471.709L269.107,471.531L269.218,471.368L269.318,471.22L269.406,471.088L269.429,471.053L269.611,470.366L269.871,469.676L270.197,469.014L270.588,468.387L271.039,467.801L271.547,467.261L272.105,466.772L272.71,466.34L273.355,465.969L274.033,465.662L274.739,465.421L275.465,465.25L276.204,465.15L276.95,465.122L277.696,465.166L278.433,465.282L279.155,465.469L279.855,465.725L280.527,466.047L281.163,466.432L281.757,466.877L282.305,467.377L282.8,467.928L283.239,468.524L283.615,469.159L283.927,469.828L284.171,470.524L284.344,471.239L284.446,471.969L284.474,472.704L284.473,472.828L284.466,473.032L284.455,473.229L284.44,473.423L284.422,473.612L284.4,473.797L284.376,473.979L284.343,474.187L284.287,474.492L284.217,474.815L284.139,475.123L284.057,475.415L283.97,475.692L283.879,475.957L283.786,476.21L283.691,476.45L283.595,476.679L283.498,476.898L283.399,477.109L283.302,477.311L283.204,477.504L283.107,477.69L283.01,477.87L282.914,478.042L282.818,478.208L282.724,478.369L282.631,478.525L282.538,478.676L282.448,478.821L282.353,478.972L282.186,479.229L282.018,479.482L281.857,479.72L281.704,479.943L281.561,480.15L281.302,480.526L281.191,480.688L281.157,480.737L281.164,480.874L281.176,481.078L281.19,481.304L281.224,481.82L281.242,482.111L281.259,482.421L281.274,482.739L281.281,482.922L281.287,483.101L281.292,483.286L281.295,483.475L281.296,483.67L281.295,483.872L281.292,484.08L281.286,484.293L281.278,484.514L281.265,484.74L281.249,484.973L281.229,485.213L281.204,485.461L281.173,485.715L281.136,485.977L281.092,486.247L281.041,486.524L280.981,486.809L280.912,487.101L280.839,487.375L280.789,487.552L280.743,487.705L280.693,487.861L280.64,488.02L280.584,488.178L280.525,488.339L280.463,488.5L280.396,488.664L280.326,488.828L280.253,488.994L280.174,489.161L280.106,489.3L279.759,489.993L279.425,490.658L279.089,491.323L278.752,491.989L278.414,492.654L278.281,492.913L278.482,492.904L278.777,492.891L279.077,492.879L279.38,492.868L279.69,492.858L280.004,492.849L280.323,492.841L280.646,492.834L280.977,492.827L281.638,492.816L282.317,492.807L283.006,492.801L283.701,492.796L284.4,492.794L285.1,492.793L285.797,492.793L286.489,492.794ZM271.435,531.74L271.491,531.738L271.513,531.736L271.435,531.74ZM446.333,506.389L445.707,506.454L445.424,506.512L445.424,506.519L445.836,506.443L446.579,506.38L446.333,506.389ZM438.888,478.769L438.894,478.779L438.894,478.776L438.888,478.701L438.883,478.636L438.877,478.584L438.888,478.769ZM436.817,475.944L436.963,476.094L436.974,476.106L436.906,476.022L436.666,475.795L436.817,475.944ZM269.289,472.041L269.279,472.148L269.271,472.259L269.264,472.374L269.26,472.497L269.26,472.539L269.291,472.03L269.289,472.041Z" style="fill:white;"/>
        </g>
        <path d="M357.445,166.525L364.158,168.132L370.585,170.648L376.605,174.025L376.608,174.027L380.5,176.855L380.738,177.067L381.152,177.358L381.683,177.736L382.222,178.127L382.586,178.394L382.924,178.646L383.284,178.917L383.663,179.206L384.066,179.518L384.441,179.814L385.779,180.121L387.15,180.476L388.483,180.86L389.765,181.266L390.991,181.69L392.166,182.128L393.31,182.586L394.404,183.054L395.445,183.527L396.452,184.011L397.413,184.498L398.323,184.983L399.21,185.477L400.056,185.97L400.862,186.46L401.635,186.948L402.373,187.432L403.077,187.91L403.75,188.383L404.405,188.858L405.025,189.322L405.745,189.877L406.725,190.664L407.752,191.534L408.689,192.365L409.56,193.173L410.364,193.951L411.1,194.692L411.79,195.411L412.427,196.098L413.019,196.758L413.57,197.389L414.082,197.994L414.563,198.576L414.592,198.613L414.61,198.628L415.011,198.96L415.422,199.303L415.848,199.662L416.293,200.04L416.768,200.448L417.28,200.894L417.793,201.348L418.158,201.677L418.499,201.988L418.875,202.336L419.294,202.732L419.773,203.192L420.449,203.859L421.415,204.854L422.52,206.063L423.632,207.361L424.736,208.743L425.825,210.203L426.902,211.763L427.946,213.402L428.962,215.137L429.939,216.97L430.852,218.866L431.701,220.83L432.484,222.875L433.185,224.971L433.802,227.118L434.326,229.301L434.751,231.483L435.082,233.691L435.314,235.884L435.451,238.063L435.495,240.213L435.451,242.312L435.325,244.362L435.125,246.342L435.05,246.88L435.062,246.903L435.304,247.357L435.546,247.821L435.786,248.288L436.052,248.814L436.325,249.369L436.619,249.985L436.901,250.593L437.169,251.191L437.433,251.797L437.685,252.394L437.923,252.977L438.155,253.562L438.382,254.156L438.597,254.737L438.803,255.309L439.003,255.885L439.193,256.452L439.373,257.009L439.549,257.571L439.715,258.12L439.875,258.67L440.029,259.219L440.174,259.753L440.312,260.285L440.445,260.816L440.572,261.342L440.692,261.86L440.829,262.476L441.016,263.375L441.206,264.369L441.376,265.346L441.526,266.298L441.657,267.227L441.773,268.142L441.873,269.038L441.958,269.915L442.03,270.774L442.089,271.616L442.136,272.438L442.172,273.249L442.197,274.04L442.213,274.813L442.219,275.572L442.218,276.316L442.208,277.052L442.191,277.77L442.167,278.472L442.136,279.162L442.099,279.84L442.057,280.506L442.01,281.158L441.957,281.8L441.9,282.431L441.839,283.049L441.773,283.661L441.704,284.26L441.631,284.85L441.555,285.432L441.476,286.002L441.394,286.564L441.308,287.118L441.221,287.661L441.131,288.197L441.039,288.73L440.944,289.252L440.848,289.764L440.75,290.27L440.65,290.773L440.548,291.264L440.446,291.749L440.34,292.232L440.235,292.705L440.127,293.173L440.018,293.638L439.909,294.092L439.799,294.538L439.688,294.984L439.575,295.423L439.462,295.856L439.348,296.287L439.233,296.712L439.118,297.129L439.002,297.542L438.885,297.951L438.769,298.353L438.651,298.755L438.532,299.153L438.415,299.542L438.297,299.926L438.178,300.309L438.059,300.686L437.926,301.102L437.872,301.268L437.876,301.331L437.904,301.915L437.927,302.528L437.945,303.172L437.956,303.833L437.96,304.519L437.955,305.24L437.941,305.988L437.916,306.766L437.879,307.573L437.828,308.413L437.761,309.292L437.676,310.206L437.573,311.156L437.447,312.142L437.298,313.163L437.121,314.233L436.914,315.345L436.674,316.493L436.398,317.683L436.082,318.914L435.724,320.185L435.315,321.503L434.851,322.871L434.334,324.266L433.758,325.696L433.116,327.161L432.407,328.651L431.618,330.181L430.757,331.722L429.818,333.276L428.794,334.843L427.695,336.397L426.798,337.573L426.723,337.962L426.637,338.397L426.545,338.846L426.448,339.304L426.345,339.777L426.235,340.264L426.12,340.758L425.997,341.266L425.867,341.789L425.732,342.315L425.589,342.854L425.438,343.405L425.279,343.963L425.112,344.533L424.937,345.111L424.751,345.705L424.558,346.298L424.356,346.903L424.143,347.52L423.923,348.137L423.692,348.765L423.449,349.402L423.199,350.039L422.938,350.684L422.664,351.34L422.381,351.995L422.089,352.652L421.786,353.312L421.472,353.978L421.146,354.648L420.81,355.318L420.463,355.989L420.106,356.661L419.739,357.331L419.362,357.999L418.972,358.672L418.574,359.34L418.166,360.005L417.746,360.671L417.321,361.327L416.885,361.982L416.439,362.634L415.986,363.28L415.522,363.923L415.05,364.561L414.572,365.191L414.085,365.815L413.592,366.432L413.094,367.039L412.584,367.647L412.073,368.239L411.556,368.825L411.03,369.407L410.504,369.975L409.968,370.541L409.428,371.097L408.892,371.635L408.403,372.116L407.919,372.583L407.448,373.026L406.99,373.449L406.534,373.862L406.083,374.263L405.644,374.645L405.216,375.012L404.795,375.366L404.378,375.712L403.974,376.041L403.574,376.362L403.183,376.671L402.805,376.966L402.424,377.259L402.053,377.54L401.693,377.81L401.338,378.073L400.99,378.326L400.652,378.571L400.314,378.812L399.937,379.079L399.354,379.483L398.741,379.902L398.152,380.296L397.587,380.669L397.043,381.023L396.52,381.358L396.02,381.673L395.539,381.974L395.079,382.259L394.638,382.53L394.218,382.785L393.816,383.029L393.416,383.269L392.734,383.678L392.1,384.055L391.815,384.225L390.16,385.756L387.585,387.837L385.08,389.61L382.693,391.101L381.078,391.993L384.689,393.581L390.489,397.141L395.751,401.455L400.378,406.443L404.286,412.014L407.401,418.063L409.665,424.48L410.396,428.026L410.765,428.361L411.217,428.775L411.677,429.205L412.146,429.652L412.62,430.111L413.106,430.59L413.598,431.086L414.098,431.599L414.61,432.136L415.125,432.688L415.649,433.262L416.185,433.864L416.724,434.485L417.271,435.131L417.825,435.803L418.387,436.504L418.954,437.234L419.526,437.993L420.042,438.699L420.388,439.186L420.681,439.605L420.973,440.03L421.264,440.462L421.556,440.902L421.849,441.353L422.141,441.812L422.436,442.285L422.732,442.77L423.022,443.254L423.313,443.753L423.609,444.269L423.899,444.79L424.188,445.319L424.476,445.86L424.763,446.415L425.047,446.979L425.329,447.553L425.611,448.143L425.887,448.74L426.16,449.347L426.434,449.975L426.701,450.61L426.964,451.256L427.221,451.911L427.474,452.581L427.726,453.272L427.965,453.959L428.201,454.663L428.433,455.389L428.656,456.119L428.872,456.863L429.078,457.612L429.277,458.378L429.47,459.165L429.649,459.947L429.82,460.742L429.982,461.559L430.133,462.379L430.273,463.214L430.4,464.051L430.516,464.899L430.621,465.767L430.712,466.637L430.789,467.509L430.853,468.389L430.903,469.279L430.94,470.178L430.961,471.076L430.968,471.98L430.959,472.901L430.936,473.818L430.897,474.732L430.843,475.65L430.772,476.581L430.686,477.506L430.585,478.424L430.468,479.344L430.335,480.265L430.186,481.185L430.023,482.096L429.842,483.014L429.648,483.922L429.441,484.817L429.214,485.728L428.976,486.616L428.727,487.49L428.458,488.377L428.181,489.239L427.891,490.095L427.584,490.953L427.269,491.788L426.942,492.619L426.604,493.438L426.255,494.246L425.894,495.049L425.527,495.831L425.173,496.555L424.858,497.181L424.559,497.757L424.255,498.328L423.943,498.898L423.626,499.463L423.302,500.025L422.97,500.585L422.631,501.143L422.292,501.688L421.943,502.236L421.586,502.782L421.229,503.313L420.867,503.841L420.494,504.372L420.118,504.894L419.742,505.405L419.358,505.913L418.97,506.416L418.582,506.908L418.19,507.393L417.791,507.877L417.393,508.349L416.984,508.824L416.58,509.282L416.179,509.727L415.763,510.18L415.353,510.617L414.947,511.04L414.531,511.466L414.118,511.879L413.705,512.285L413.287,512.688L412.873,513.078L412.46,513.461L412.047,513.836L411.55,514.278L410.819,514.911L410.007,515.589L409.202,516.237L408.404,516.856L407.622,517.443L406.853,518.001L406.096,518.532L405.358,519.033L404.641,519.506L403.936,519.956L403.252,520.381L402.587,520.782L401.943,521.16L401.325,521.513L400.729,521.846L400.155,522.158L399.604,522.451L399.076,522.726L398.569,522.984L398.088,523.224L397.636,523.446L397.207,523.653L397.023,523.741L396.762,523.915L396.247,524.253L395.702,524.604L395.124,524.97L394.519,525.345L393.882,525.731L393.208,526.13L392.5,526.538L391.827,526.916L391.371,527.166L390.968,527.383L390.56,527.6L390.137,527.821L389.705,528.043L389.264,528.265L388.807,528.491L388.34,528.717L387.857,528.946L387.352,529.18L386.841,529.412L386.325,529.64L385.78,529.875L385.219,530.111L384.652,530.343L384.061,530.577L383.444,530.814L382.818,531.047L382.173,531.279L381.503,531.511L380.812,531.741L380.101,531.968L379.375,532.189L378.615,532.41L377.83,532.626L377.025,532.836L376.186,533.041L375.326,533.237L374.443,533.425L373.524,533.604L372.581,533.772L371.599,533.929L370.584,534.073L369.551,534.199L368.477,534.31L367.368,534.403L366.225,534.475L365.054,534.523L363.848,534.547L362.6,534.544L361.325,534.511L360.023,534.446L358.68,534.346L357.306,534.209L355.908,534.033L354.483,533.815L353.03,533.552L351.552,533.242L350.064,532.885L348.789,532.54L348.258,532.686L347.673,532.843L347.082,532.998L346.49,533.149L345.897,533.297L345.299,533.441L344.699,533.582L344.093,533.721L343.485,533.855L342.875,533.987L342.258,534.115L341.64,534.239L341.017,534.361L340.387,534.479L339.757,534.593L339.121,534.703L338.479,534.81L337.834,534.913L337.186,535.011L336.529,535.107L335.866,535.198L335.201,535.285L334.529,535.367L333.851,535.445L333.166,535.519L332.476,535.588L331.78,535.652L331.075,535.711L330.365,535.764L329.649,535.813L328.924,535.855L328.191,535.892L327.45,535.923L326.704,535.947L325.949,535.965L325.182,535.976L324.647,535.978L317.837,535.545L311.149,534.188L304.708,531.933L298.634,528.822L293.04,524.913L288.031,520.279L283.699,515.006L280.126,509.192L277.377,502.946L275.505,496.383L274.544,489.627L274.511,482.803L275.409,476.038L277.219,469.458L279.908,463.186L281.502,460.536L281.394,460.395L280.893,459.72L280.415,459.056L279.961,458.405L279.529,457.766L279.123,457.148L278.729,456.532L278.358,455.934L278.015,455.367L277.679,454.798L277.361,454.245L277.062,453.709L277.01,453.615L276.84,453.415L276.547,453.066L276.264,452.723L275.993,452.391L275.673,451.995L275.193,451.387L274.692,450.739L274.212,450.102L273.75,449.477L273.306,448.861L272.877,448.254L272.464,447.658L272.067,447.074L271.682,446.496L271.308,445.924L270.947,445.363L270.596,444.806L270.255,444.256L269.925,443.716L269.602,443.176L269.287,442.641L268.982,442.117L268.684,441.596L268.392,441.076L268.107,440.561L267.829,440.052L267.556,439.542L267.288,439.035L267.027,438.533L266.77,438.032L266.517,437.531L266.27,437.034L266.027,436.536L265.788,436.039L265.551,435.539L265.318,435.039L265.088,434.537L264.86,434.032L264.635,433.522L264.413,433.01L264.191,432.491L263.971,431.963L263.751,431.426L263.533,430.88L263.315,430.323L263.095,429.746L262.873,429.149L262.65,428.53L262.426,427.89L262.202,427.227L261.718,426.51L261.097,425.543L260.504,424.573L259.945,423.612L259.389,422.61L258.865,421.609L258.365,420.606L257.884,419.583L257.436,418.576L257.001,417.537L256.592,416.498L256.214,415.476L255.82,414.337L255.395,412.997L254.997,411.603L254.658,410.281L254.368,409.02L254.126,407.83L253.924,406.715L253.755,405.652L253.613,404.636L253.498,403.668L253.469,403.392L253.205,403.289L252.625,403.062L252.034,402.826L251.433,402.581L250.824,402.328L250.206,402.067L250.187,402.059L249.947,402.042L249.355,401.993L248.845,401.946L248.325,401.894L247.793,401.836L247.233,401.77L246.67,401.698L246.103,401.621L245.517,401.534L244.901,401.437L244.282,401.332L243.66,401.22L243.009,401.095L242.355,400.962L241.68,400.816L240.986,400.657L240.374,400.509L239.76,400.354L239.225,400.216L238.693,400.075L238.165,399.931L237.633,399.783L237.105,399.633L236.581,399.48L236.057,399.323L235.532,399.163L235.013,399.001L234.499,398.837L233.981,398.667L233.47,398.497L232.961,398.324L232.455,398.148L231.954,397.97L231.456,397.789L230.96,397.606L230.471,397.422L229.989,397.237L229.507,397.049L229.029,396.859L228.559,396.668L228.096,396.477L227.638,396.285L227.185,396.092L226.741,395.899L226.302,395.706L225.868,395.513L225.444,395.32L225.026,395.128L224.615,394.937L224.213,394.747L223.819,394.558L223.432,394.37L223.054,394.185L222.687,394.002L222.325,393.821L221.97,393.641L221.589,393.446L220.976,393.127L220.354,392.798L219.768,392.484L219.219,392.186L218.711,391.906L218.236,391.643L217.798,391.399L217.391,391.17L216.708,390.786L215.959,390.365L215.568,390.142L215.029,389.829L214.494,389.51L213.973,389.19L213.454,388.866L212.938,388.534L212.437,388.205L211.939,387.871L211.446,387.532L210.957,387.188L210.476,386.843L210.011,386.501L209.553,386.158L208.993,385.729L208.195,385.099L207.33,384.388L206.493,383.673L205.68,382.952L204.894,382.227L204.14,381.507L203.406,380.781L202.698,380.055L202.018,379.334L201.362,378.615L200.729,377.898L200.119,377.185L199.532,376.477L198.966,375.772L198.421,375.075L197.899,374.384L197.394,373.698L196.911,373.022L196.446,372.353L195.995,371.686L195.563,371.028L195.15,370.382L194.751,369.743L194.366,369.109L193.997,368.485L193.643,367.871L193.301,367.264L192.972,366.664L192.656,366.074L192.35,365.491L192.057,364.917L191.775,364.352L191.502,363.793L191.241,363.246L190.988,362.705L190.745,362.173L190.511,361.649L190.285,361.131L190.067,360.623L189.857,360.122L189.654,359.629L189.459,359.145L189.27,358.666L189.088,358.195L188.912,357.732L188.741,357.275L188.577,356.826L188.419,356.386L188.265,355.951L188.117,355.524L187.974,355.103L187.835,354.688L187.702,354.284L187.572,353.884L187.446,353.49L187.324,353.102L187.206,352.72L187.093,352.349L186.97,351.937L186.774,351.27L186.576,350.58L186.391,349.915L186.217,349.274L186.054,348.66L185.9,348.071L185.756,347.507L185.621,346.967L185.494,346.454L185.375,345.967L185.26,345.487L185.068,344.681L184.897,343.958L184.779,343.458L184.745,343.378L184.674,343.213L184.608,343.061L184.427,342.646L184.237,342.218L184.028,341.75L183.802,341.245L183.561,340.712L183.017,339.511L182.432,338.221L182.115,337.52L181.788,336.795L181.45,336.043L181.103,335.263L180.746,334.457L180.381,333.624L180.019,332.791L179.82,332.33L179.629,331.885L179.438,331.433L179.244,330.975L179.049,330.51L178.853,330.04L178.656,329.562L178.457,329.078L178.258,328.587L178.058,328.09L177.857,327.586L177.656,327.075L177.454,326.559L177.251,326.033L177.048,325.503L176.845,324.964L176.642,324.419L176.439,323.867L176.235,323.307L176.033,322.741L175.83,322.167L175.628,321.584L175.426,320.995L175.226,320.397L175.026,319.791L174.827,319.178L174.629,318.556L174.432,317.926L174.237,317.287L174.044,316.638L173.852,315.981L173.663,315.315L173.475,314.64L173.29,313.954L173.108,313.259L172.928,312.555L172.752,311.839L172.578,311.113L172.409,310.376L172.243,309.629L172.092,308.922L172.002,308.486L171.925,308.102L171.848,307.713L171.772,307.319L171.697,306.921L171.624,306.522L171.553,306.122L171.483,305.719L171.414,305.309L171.346,304.896L171.281,304.482L171.217,304.067L171.154,303.644L171.093,303.218L171.035,302.792L170.977,302.36L170.922,301.925L170.869,301.488L170.818,301.045L170.769,300.601L170.722,300.151L170.677,299.698L170.635,299.244L170.595,298.784L170.557,298.319L170.522,297.852L170.489,297.382L170.459,296.907L170.432,296.428L170.408,295.945L170.387,295.461L170.369,294.971L170.354,294.475L170.342,293.975L170.333,293.475L170.328,292.97L170.326,292.46L170.328,291.946L170.333,291.428L170.342,290.907L170.356,290.379L170.373,289.851L170.394,289.318L170.42,288.777L170.45,288.235L170.484,287.691L170.523,287.142L170.566,286.589L170.615,286.03L170.668,285.467L170.726,284.903L170.789,284.336L170.858,283.763L170.933,283.184L171.012,282.604L171.098,282.02L171.189,281.432L171.286,280.842L171.389,280.247L171.498,279.648L171.613,279.05L171.736,278.443L171.864,277.837L171.999,277.228L172.141,276.613L172.29,275.995L172.446,275.376L172.608,274.758L172.777,274.135L172.954,273.51L173.14,272.879L173.333,272.248L173.532,271.618L173.762,270.914L174.019,270.163L174.309,269.362L174.598,268.597L174.958,267.687L175.481,266.449L176.076,265.139L176.669,263.919L177.257,262.781L177.835,261.722L178.402,260.734L178.956,259.81L179.497,258.945L180.023,258.136L180.53,257.385L181.022,256.677L181.501,256.01L181.963,255.385L182.407,254.799L182.832,254.252L183.248,253.728L183.648,253.237L184.026,252.78L184.395,252.342L184.748,251.931L184.821,251.848L185.06,251.388L185.358,250.828L185.68,250.238L186.025,249.619L186.393,248.978L186.79,248.305L187.218,247.599L187.674,246.87L188.164,246.111L188.689,245.324L189.254,244.508L189.859,243.664L190.433,242.894L190.847,242.355L191.205,241.897L191.57,241.44L191.949,240.976L192.342,240.506L192.746,240.031L193.173,239.543L193.608,239.056L194.056,238.566L194.523,238.067L195.006,237.564L195.506,237.055L196.016,236.551L196.549,236.037L196.635,235.956L196.953,235.432L197.461,234.596L197.759,234.109L198.071,233.598L198.406,233.057L198.763,232.483L199.143,231.879L199.525,231.279L199.755,230.921L199.972,230.586L200.197,230.241L200.429,229.89L200.666,229.532L200.912,229.165L201.164,228.791L201.423,228.413L201.69,228.025L201.966,227.629L202.248,227.229L202.539,226.819L202.839,226.404L203.147,225.982L203.465,225.552L203.791,225.117L204.126,224.675L204.472,224.226L204.828,223.77L205.192,223.31L205.568,222.842L205.955,222.369L206.352,221.89L206.761,221.405L207.181,220.917L207.612,220.423L208.056,219.923L208.514,219.418L208.983,218.909L209.464,218.397L209.959,217.882L210.467,217.361L210.99,216.838L211.525,216.313L212.075,215.785L212.64,215.255L213.219,214.723L213.813,214.191L214.421,213.658L215.045,213.124L215.686,212.589L216.338,212.058L217.007,211.527L217.694,210.997L218.395,210.47L219.111,209.946L219.772,209.477L220.214,209.169L220.59,208.912L220.967,208.657L221.352,208.402L221.742,208.147L222.131,207.895L222.523,207.647L222.922,207.397L223.329,207.148L223.699,206.924L224.203,206.623L224.674,206.344L225.147,206.067L225.619,205.793L226.092,205.521L226.563,205.253L227.036,204.986L227.509,204.721L227.981,204.459L228.453,204.2L228.926,203.942L229.399,203.687L229.871,203.435L230.343,203.184L230.816,202.936L231.288,202.691L231.76,202.447L232.233,202.206L232.704,201.967L233.176,201.73L233.648,201.496L234.121,201.263L234.591,201.033L235.061,200.806L235.533,200.579L236.005,200.355L236.475,200.134L236.945,199.914L237.415,199.697L237.885,199.481L238.355,199.268L238.824,199.056L239.293,198.847L239.762,198.64L240.23,198.435L240.698,198.231L241.166,198.03L241.633,197.83L242.1,197.633L242.567,197.437L243.033,197.243L243.499,197.052L243.965,196.861L244.429,196.674L244.894,196.487L245.36,196.302L245.823,196.12L246.286,195.939L246.749,195.759L247.21,195.582L247.673,195.407L248.135,195.232L248.597,195.06L249.057,194.889L249.516,194.721L249.976,194.554L250.435,194.388L250.893,194.224L251.352,194.062L251.81,193.901L252.266,193.742L252.723,193.584L253.178,193.428L253.633,193.274L254.088,193.121L254.542,192.97L254.995,192.82L255.449,192.671L255.901,192.524L256.352,192.379L256.804,192.235L257.254,192.092L257.704,191.951L258.154,191.811L258.601,191.673L259.049,191.536L259.497,191.4L259.943,191.266L260.39,191.133L260.835,191.002L261.279,190.871L261.723,190.742L262.167,190.615L262.608,190.488L263.05,190.363L263.492,190.239L263.933,190.117L264.398,189.988L265.248,189.756L266.123,189.522L266.995,189.292L267.863,189.067L268.728,188.846L269.59,188.63L270.45,188.417L271.305,188.21L272.157,188.006L273.007,187.806L273.854,187.61L274.696,187.418L275.535,187.23L276.372,187.045L277.204,186.864L278.033,186.687L278.858,186.513L279.68,186.342L280.499,186.175L281.17,186.039L281.208,186.029L281.261,186.015L281.327,185.996L281.404,185.974L281.493,185.948L281.594,185.917L281.705,185.883L281.827,185.844L281.959,185.802L282.102,185.755L282.253,185.704L282.413,185.65L282.583,185.591L282.761,185.529L282.946,185.463L283.14,185.393L283.34,185.32L283.549,185.242L283.765,185.161L283.986,185.077L284.215,184.989L284.449,184.898L284.689,184.804L284.936,184.706L285.189,184.605L285.446,184.501L285.707,184.395L285.975,184.285L286.248,184.172L286.526,184.056L286.807,183.938L287.092,183.818L287.383,183.694L287.677,183.568L287.976,183.44L288.278,183.309L288.567,183.184L289.211,182.902L289.847,182.622L290.498,182.333L291.163,182.036L291.84,181.733L292.531,181.423L293.951,180.785L294.683,180.457L295.519,180.083L295.978,179.881L296.53,179.644L297.075,179.416L297.608,179.199L298.135,178.99L298.654,178.789L299.165,178.596L299.671,178.411L300.169,178.232L300.662,178.06L301.147,177.894L301.625,177.735L302.1,177.581L302.567,177.433L303.026,177.291L303.486,177.152L303.937,177.019L304.381,176.891L304.821,176.768L305.256,176.649L305.69,176.533L306.116,176.421L306.536,176.314L306.955,176.21L307.368,176.109L307.778,176.012L308.185,175.918L308.586,175.827L308.981,175.74L309.377,175.654L309.772,175.571L310.215,175.48L310.921,175.34L311.677,175.198L312.42,175.064L313.153,174.938L313.875,174.821L314.589,174.71L315.294,174.606L315.99,174.508L316.68,174.417L317.361,174.331L318.036,174.25L318.705,174.174L319.368,174.103L320.025,174.037L320.677,173.975L321.323,173.917L321.966,173.863L322.255,173.84L324.624,172.289L330.592,169.426L336.885,167.376L336.887,167.376L343.678,166.143L350.575,165.858L357.445,166.525ZM326.984,520.289L327.193,520.475L326.787,520.099L326.6,519.92L326.984,520.289ZM395.799,447.729L395.793,447.724L395.767,447.699L395.799,447.729ZM411.022,444.721L411.045,444.557L411.075,444.321L411.1,444.12L411.117,443.968L411.133,443.83L411.148,443.685L411.162,443.537L411.176,443.386L411.19,443.22L411.203,443.04L411.217,442.84L411.229,442.617L411.238,442.432L411.246,442.232L411.251,442.086L411.255,441.928L411.259,441.756L411.262,441.571L411.264,441.375L411.264,441.236L411.022,444.721ZM340.994,413.958L341.354,413.74L341.363,413.735L340.994,413.958ZM380.809,384.384L380.919,384.226L381.29,383.675L381.685,383.068L382.107,382.394L382.552,381.652L382.744,381.318L380.809,384.384ZM392.835,373.578L392.452,374.221L392.637,373.945L393.006,373.28L392.835,373.578ZM393.993,371.499L393.962,371.556L394.091,371.325L394.32,370.874L393.993,371.499ZM201.101,232.156L201.095,232.161L201.174,232.101L201.101,232.156ZM419.348,211.786L419.235,211.662L419.101,211.523L419.348,211.786Z" style="fill:white;"/>
        <path d="M283.42,5.59C284.63,5.36 286.25,4.44 287.15,5.8C294.92,14.24 301.77,23.52 307.53,33.43C326.06,64.76 337.02,99.91 355.89,131.06C357.67,134.01 359.45,137.03 361.9,139.5C366.65,138.51 371.23,136.87 375.98,135.83C383.38,133.24 390.84,130.81 398.19,128.06C415.94,121.16 434.2,115.12 453.15,112.61C459.06,111.91 465.02,111.16 470.98,111.52C470.44,121.31 465.44,130.74 457.58,136.61C449.22,143 438.96,146.18 428.89,148.74C410.79,153.21 391.67,155.23 375.05,164.25L375.02,164.9C389.5,172.95 404.48,180.84 416.12,192.89C431.04,207.6 439.03,228.42 439.83,249.19C444.47,253.28 450.15,256.08 455.86,258.4C464.62,262.03 475.06,261.04 483.12,256.13C481.17,251.97 477.67,248.56 476.64,243.98C476.29,241.76 476.62,238.97 478.7,237.67C482.57,235.06 487.71,236.33 491.47,238.52C494.23,247.26 493.06,256.69 492.63,265.7C482.79,270.94 472.36,276.25 460.99,276.62C455.7,276.91 450.87,274.47 446.18,272.38C446.44,292.12 444.82,312.07 439.1,331.05C432.94,353.11 420.32,373.05 404.17,389.16C403.49,389.83 402.86,390.53 402.27,391.27C405.81,398.44 411.33,404.77 418.4,408.63C435.18,418.48 455.31,420.21 472.18,429.87C473.23,430.35 474.42,431.38 475.64,430.66C486.21,426.35 493.77,417.17 499.8,407.82C508.34,394.81 514.51,380.37 523.75,367.81C527.89,362.34 532.62,357.09 538.65,353.67C544.59,350.27 551.78,349.56 558.44,350.83C565.4,352.27 571.91,355.41 577.96,359.06C577.11,361.06 576.1,363.01 574.8,364.75C571.87,364.92 568.94,364.56 566.02,364.72C566.16,368.34 567.24,371.85 568.95,375.04C563.42,372.64 557.51,371.34 551.83,369.37C548.63,368.41 547.45,364.99 545.09,362.99C538.75,365.88 533.54,370.75 529.2,376.11C515.79,393.35 510.22,415.36 496.2,432.19C488.88,441.29 476.2,446.46 464.73,443.23C455.88,440.82 449.37,433.99 441.82,429.2C435.65,425.12 428.45,422.41 421.01,422.2C426.69,444.64 439.2,464.52 446.75,486.3C452.07,500.75 455.14,516.01 455.7,531.41C467.39,532.73 479.21,532.94 490.96,532.23C497.29,531.59 503.68,531.58 510.02,530.96C524.34,529.85 538.82,528.25 553.11,530.55C555.45,531 557.97,531.07 560.08,532.3C536.2,535.64 512.03,534.72 487.99,534.82C471.66,534.94 455.33,534.7 439,534.89C421,535.51 402.97,535.35 384.99,536.23C372.66,536.59 360.31,536.52 348,537.2C326,537.61 304,537.73 282,537.5C275.99,537.42 269.98,537.44 264,536.83C256.66,536.61 249.31,536.52 241.97,536.11C235.7,535.39 229.32,535.79 223.12,534.44C227.19,534.7 231.67,535.47 235.38,533.31C239.17,531.13 241.73,527.33 243.27,523.32C247.69,511.98 248.05,499.55 252.25,488.15C256.24,476.35 265.84,466.76 267.15,454.04C266.85,446.67 263.57,439.68 258.97,434.01C252.78,426.43 244.79,420.59 236.6,415.34C222.07,405.98 206.67,397.77 193.56,386.39C185.72,379.46 178.62,371.42 174.17,361.87C166.15,345.18 162.08,326.46 163.48,307.94C165.63,282.79 175.03,259.02 178.94,234.2C151.58,241.33 126.93,256.6 99.02,261.93C97.41,262.74 96.8,260.76 96.2,259.75C92.68,252.84 89.94,244.98 91.28,237.15C92.13,236.29 93.29,235.86 94.33,235.31C110.78,227.36 128.01,221.22 145.21,215.12C155.57,211.21 166.05,207.43 175.87,202.29C151.19,166.93 132.68,127.37 104.69,94.33C103.52,92.68 101.55,91.36 101.06,89.36C113.47,75.05 128.96,63.69 145.42,54.44C158.58,47.12 172.38,41.01 186.46,35.69C218.14,23.69 250.99,15.24 283.42,5.59M348.52,178.79C336.9,180.25 325.56,183.45 314.58,187.47C290.51,196.24 266.67,205.69 243.41,216.47C231.16,222.55 218.68,228.46 207.7,236.71C201.09,241.61 196.65,248.75 192.98,255.98C187.78,265.95 184.84,276.96 183.36,288.06C181.48,301.47 182,315.21 184.87,328.44C188.48,344.79 195.82,360.77 207.87,372.61C207.58,367.37 206.76,362.18 206.43,356.96C204.37,333.85 203.4,310.37 196.79,287.98C196.49,286.71 195.94,285.43 196.09,284.1C197.74,281.78 199.72,279.73 201.44,277.46C209.88,266.55 216.7,254.32 226.52,244.52C235.92,235 248.75,229.01 262.06,227.76C268.86,227.19 275.7,227.86 282.5,227.5C282.84,222.45 281.13,217.59 280.66,212.6C283.85,212.8 284.94,216.21 286.5,218.46C294.83,233.75 301.03,250.5 302.53,267.95C303.04,276.89 302.94,286.19 299.55,294.62C296.68,302.01 291.27,308.59 284.06,312.07C272.53,317.96 258.24,318.23 246.61,312.45C230.88,305.16 219.37,291.53 204.31,283.18C204.12,310.39 213.16,336.77 212.7,364C212.68,368.8 211.46,373.47 210.67,378.17C212.19,379.77 214.19,380.78 216,382.02C226.58,388.94 237,396.32 248.71,401.26C258.35,405.39 268.79,407.12 279.15,408.31C301.09,410.32 323.51,409.9 344.94,404.34C367.85,398.65 389.61,387.17 405.92,369.93C424.59,349.94 435.05,323.08 436.92,295.96C437.63,286.5 438.12,276.86 436.44,267.48C431.95,267.09 427.39,266.86 422.9,267.43C416.59,268.44 411.73,273.27 408.33,278.39C405.81,282 404.17,286.13 401.74,289.79C390.39,292.39 378.71,295.31 366.98,293.98C361.31,293.45 356.1,290.46 350.39,290.39C347.2,291.55 344.62,293.88 342.21,296.19C331.24,307.23 324.86,321.88 314.12,333.1C309.95,337.46 304.25,341.34 297.93,340.6C292.34,339.79 287.81,335.94 284.03,331.98C282.61,330.4 280.91,328.97 279.98,327.03C283.27,322.73 287.7,317.64 293.69,318.3C297.73,321.54 297.83,327.34 300.59,331.47C300.81,331.6 301.26,331.87 301.49,332C307.54,314.88 314.51,297.49 326.8,283.8C334.96,274.77 346.49,267.79 359,268.12C367.51,268.06 375.45,271.49 383.2,274.58C386.69,267.17 391.36,259.87 398.68,255.74C408.28,249.87 419.9,249.45 430.83,249.65C430.26,239.98 428.6,230.33 425.56,221.12C421.77,209.68 414.94,199.1 405.38,191.65C394.99,183.6 382.02,179.22 368.97,178.31C362.16,178.01 355.3,177.95 348.52,178.79M257.62,233.5C256.2,236.85 255.19,240.35 253.73,243.69C246.81,260.62 236.91,276.11 229.5,292.81C232.89,295.64 236.01,298.76 239.07,301.95C240.6,304 243.51,303.36 245.59,302.68C247.9,298.31 249.92,293.78 252.48,289.54C261.43,273.88 272.34,258.8 276.38,240.92C276.57,239.38 277.39,237.72 276.77,236.21C271.01,232.87 264.03,233.01 257.62,233.5M242.35,240.51C232.05,244.8 224.81,255.1 223.49,266.08C223.21,270.2 224.59,274.2 225.57,278.15C227.72,275.67 229.19,272.71 231.07,270.03C237.28,260.57 243.75,250.73 245.66,239.35C244.83,239.64 243.17,240.22 242.35,240.51M285.37,243.44C280.29,248.09 276.19,253.69 272.46,259.45C264.82,271.57 259.01,284.7 252.42,297.39C250.84,300.49 249.17,303.56 247.96,306.83C254.94,301.48 260.53,294.51 265.12,287.06C271.63,276.45 276.65,265.03 281.76,253.71C283.35,250.1 285.09,246.54 286.2,242.74L285.37,243.44M289.36,248.9C286.68,253.42 284.39,258.16 281.78,262.72C273.3,278.19 262.82,292.81 257.4,309.76C271.5,307.99 283.12,297.67 289.65,285.49C294.43,276.86 297.56,266.4 294.27,256.7C293.14,253.87 291.96,250.69 289.36,248.9M295.51,278.38C291.09,285.65 285.11,292.16 282.68,300.47C292.57,298.79 300.17,287.15 296.06,277.58L295.51,278.38M387.94,399.8C386.54,401.57 386.17,403.82 386.17,406.02C386.21,418.11 387.64,430.61 393.5,441.4C397.5,448.4 403.84,454.55 411.76,456.74L412.29,456.44C413.38,451.93 414.23,446.65 411.47,442.55C407.37,436.16 400.56,432.38 395.27,427.15C396.93,421.33 401.49,416.8 402.71,410.82C401.2,409.17 399.36,407.81 398.05,405.99C396.45,403.8 395.17,401.33 393.08,399.55C391.4,399.1 389.53,398.98 387.94,399.8M377.57,402.53C375.36,406.45 370.54,406.43 366.84,408.06C371.14,411.94 375.07,416.23 379.54,419.93C380.06,415.61 380.94,411.27 380.64,406.9C380.49,404.97 379.44,403.28 378.14,401.91L377.57,402.53M354.88,415.01C354.76,423.24 353.1,432.18 357.21,439.76C359.1,443.34 363.6,443.73 367.13,444.48C367.19,441.06 367.26,437.6 368.47,434.37C369.25,431.41 370.87,428.5 370.72,425.41C367.71,423.38 365.11,420.86 362.9,417.99C361.12,415.42 357.66,415.47 354.88,415.01M291.68,415.68C292.49,419.78 293.57,423.86 295.32,427.67C297.29,432.04 300.75,435.55 304.53,438.43C308.42,441.35 313.1,442.82 317.58,444.53C318.3,452.24 311.31,457.76 310.52,465.17C311.53,466.59 312.98,467.6 314.26,468.76C318.95,472.73 322.5,477.9 327.42,481.61C329.12,482.91 331.4,482.36 333.38,482.46C331.94,479.27 330.27,476.17 329.28,472.8C324.57,457.62 326.74,441.21 321.6,426.13C320.12,422.28 318.02,418.53 315.07,415.63C307.28,415.51 299.47,415.48 291.68,415.68M322.54,415.76C324.15,420.29 325.27,425.26 327.92,429.25C330.17,428.54 332.72,428.15 334.56,426.59C336.98,423.54 336.68,419.34 336.71,415.67C331.99,415.5 327.25,415.49 322.54,415.76M264.39,419.63C263.02,420.21 261.23,420.49 260.43,421.86C269.39,435.59 279.44,448.82 285.6,464.15C292.75,481.51 294.51,500.74 292.1,519.27C297.72,519.46 303.4,519 308.98,519.97C316.35,521.23 323.52,523.63 331.01,524.2C335.85,524.55 340.59,523.23 345.4,522.93C343.49,525.57 341.08,527.79 339.09,530.36C339.12,530.6 339.19,531.08 339.22,531.32C344.42,531.9 349.64,532.76 354.89,532.46C354.91,529.95 355.17,527.27 354,524.96C350.81,517.96 345.92,511.89 340.66,506.34C335,500.33 329.24,494.43 323.6,488.41C317.62,481.87 311.99,474.58 309.64,465.88C308.25,460.58 309.57,455.1 311.31,450.06C307.64,450.27 303.75,451.33 300.23,449.77C297.65,448.74 296.08,446.23 295.19,443.72C293.55,439.01 293.9,433.9 292.6,429.11C292.22,427.17 290.2,426.33 288.79,425.25C281.71,420.66 272.87,416.9 264.39,419.63M379.41,428.4C378.02,435.48 377.94,443.01 380.06,449.99C384.08,464.43 392.73,477.09 396.59,491.59C398.04,496.63 398.42,501.87 399.01,507.05C402.72,503.21 406.01,498.54 406.74,493.12C408.31,483.61 405.59,473.95 401.5,465.41C395.29,452.29 387.07,440.28 379.74,427.78L379.41,428.4M336.14,440.04C331.1,453.63 331.85,468.75 335.67,482.55C337.81,489.97 340.58,497.44 345.59,503.44C348.79,507.28 353.41,510.08 358.48,510.37C356.51,507.72 354.03,505.47 352.42,502.58C350.95,499.94 350.39,496.92 349.92,493.98C347.83,480.41 351.93,466.67 349.48,453.12C348.71,449.62 347.44,445.85 344.48,443.6C341.93,441.95 339.06,440.82 336.14,440.04M419.52,450.36C415.86,455.56 412.94,461.56 412.68,468.02C411.78,484.14 413.56,500.28 412.57,516.4C412.11,521.77 409.98,526.75 408.09,531.73C421.75,531.91 435.42,531.82 449.08,531.77L449.37,531.22C444.35,502.73 434.6,475.07 420.72,449.69L420.08,449.63L419.52,450.36M367.22,459.14C363.37,472.46 363.07,487.12 367.86,500.24C370.64,507.44 376.07,514.2 383.54,516.75C391.98,505.15 390.83,489.22 385.49,476.57C382.17,468.69 376.18,460.63 367.22,459.14M270.35,475.17C262.08,490.03 257.53,506.56 253.41,522.96C252.65,526.14 251.64,529.28 251.17,532.53C254.07,532.72 256.99,532.73 259.9,532.58C264.49,532.3 268.26,529.36 272.02,527.01C274.64,525.2 277.47,523.74 280.09,521.94C280.09,509.93 281.02,497.72 278.41,485.9C277.58,481.16 274.4,477.33 270.91,474.24L270.35,475.17M399.42,509.27C395.9,513.14 391.64,516.25 388.12,520.11C385.27,523.22 385.58,527.74 385.65,531.65C389.04,532.43 392.54,532.34 396,532.38C398.07,532.32 400.31,532.57 402.17,531.44C403.97,525.01 407.07,518.36 405.4,511.56C403.78,510.34 401.95,509.42 400.08,508.66L399.42,509.27M364.45,521.64C362.28,522.18 360.01,522.8 358.28,524.27C357.42,526.04 359.39,527.39 360.66,528.22C367.4,532.81 375.93,532.94 383.77,532.44C383.55,530.03 383.52,527.19 381.58,525.45C376.91,521.51 370.33,520.46 364.45,521.64Z" style="fill:rgb(1,1,1);fill-rule:nonzero;"/>
        <path d="M317.34,194.28L317.94,193.93C320.38,196.53 322.67,199.37 325.84,201.13C334.9,206.43 345.75,207.17 356.02,206.86C371.46,206.7 386.66,203.51 402.02,202.4C400.16,214.56 401.58,226.95 399.46,239.08C398.46,245.76 396.02,252.42 391.45,257.5C386.82,262.69 379.92,265.53 373.04,265.79C368.24,265.95 363.28,265.95 358.75,264.15C350.41,260.95 343.25,255.42 336.36,249.87C336.57,243.39 337.83,236.41 334.58,230.42C329.64,220.64 318.19,216.64 312.82,207.2C311.28,204.76 310.66,201.83 310.82,198.97C312.79,197.14 315.06,195.68 317.34,194.28M366.18,217.15C360.47,217.66 354.66,218.77 349.64,221.67C347.02,223.24 344.64,225.48 343.51,228.37C342.81,231.4 344.05,234.45 344.94,237.31C347.51,234.13 349.69,230.3 353.63,228.61C363.22,223.38 375.01,224.06 384.28,218.18C378.34,217.02 372.22,216.49 366.18,217.15M368.35,227.45C365.91,228.49 363.95,230.35 361.67,231.65C357.5,234.21 352.46,235.38 348.91,238.88C346.04,241.5 344.68,245.78 345.58,249.52C348.39,253.65 353.1,256.22 357.97,257.03C370.64,259.4 385.16,254.32 391.87,242.92C394.93,237.81 393,231.5 389.82,226.96C388.43,230.36 387.34,233.97 385.08,236.94C380.09,233.72 376.22,228.23 370.03,227.25C369.61,227.3 368.77,227.4 368.35,227.45Z" style="fill:rgb(1,1,1);fill-rule:nonzero;"/>
        <path d="M408.22,290.34C411.38,290.17 414.57,290.07 417.74,290.31C420.48,298.42 421.7,307.09 421.09,315.64C416.78,314.67 413.81,310.72 412.09,306.87C409.92,301.61 409.07,295.92 408.22,290.34Z" style="fill:rgb(1,1,1);fill-rule:nonzero;"/>
        <path d="M356.39,303.56C357.84,303.04 359.3,302.56 360.78,302.12C360.02,306.65 357.9,311.29 359.38,315.9C360.82,321.15 363.3,326.05 364.72,331.31C360.23,331.33 355.62,331.9 351.22,330.89C346.78,323.55 348.72,314.58 348.68,306.48C351.14,305.24 353.81,304.5 356.39,303.56Z" style="fill:rgb(1,1,1);fill-rule:nonzero;"/>
        <path d="M380.42,304.61C387.73,302.77 395.69,303.03 402.67,306.02C401.52,308.4 399.01,309.79 396.66,310.78C391,312.97 384.83,312.11 378.95,312.96C375.11,313.47 372.36,316.45 369.05,318.15C368.94,314.63 369.17,310.53 372.1,308.09C374.54,306.27 377.54,305.43 380.42,304.61Z" style="fill:rgb(1,1,1);fill-rule:nonzero;"/>
        <path d="M381.56,315.87C386.33,314.97 391.23,315.18 396.06,315.37C393.57,319.31 390.7,323.35 386.4,325.45C382.36,327.61 377.66,328.04 373.16,327.84C373.15,324.86 373.31,321.64 375.11,319.14C376.58,317.06 379.22,316.42 381.56,315.87Z" style="fill:rgb(1,1,1);fill-rule:nonzero;"/>
        <clipPath id="_clip1">
            <path d="M381.56,315.87C386.33,314.97 391.23,315.18 396.06,315.37C393.57,319.31 390.7,323.35 386.4,325.45C382.36,327.61 377.66,328.04 373.16,327.84C373.15,324.86 373.31,321.64 375.11,319.14C376.58,317.06 379.22,316.42 381.56,315.87Z" clip-rule="nonzero"/>
        </clipPath>
        <g clip-path="url(#_clip1)">
            <path d="M384.378,241.926L387.655,241.93L390.93,241.934L394.204,241.936L395.839,241.937L397.474,241.936L399.108,241.934L400.742,241.931L402.375,241.926L404.005,241.92L404.796,241.916L405.586,241.911L406.379,241.903L407.172,241.895L408.769,241.876L410.371,241.856L411.979,241.837L412.788,241.828L413.598,241.821L414.41,241.814L415.224,241.809L416.039,241.806L416.87,241.805L417.018,241.806L417.179,241.808L417.339,241.813L417.499,241.819L417.659,241.827L417.817,241.837L417.974,241.848L418.131,241.862L418.288,241.877L418.444,241.894L418.599,241.912L418.753,241.932L418.907,241.954L419.061,241.978L419.214,242.004L419.366,242.031L419.517,242.06L419.668,242.091L419.817,242.123L419.967,242.157L420.117,242.194L420.265,242.231L420.412,242.271L420.559,242.313L420.706,242.356L420.852,242.401L420.997,242.448L421.142,242.498L421.286,242.548L421.43,242.602L421.573,242.656L421.715,242.713L421.857,242.773L422,242.834L422.141,242.898L422.281,242.963L422.422,243.032L422.562,243.102L422.701,243.175L422.841,243.251L422.979,243.329L423.117,243.41L423.256,243.494L423.393,243.581L423.53,243.671L423.667,243.764L423.804,243.861L423.94,243.96L424.074,244.063L424.21,244.171L424.346,244.284L424.48,244.399L424.612,244.518L424.745,244.643L424.878,244.773L425.009,244.907L425.139,245.047L425.269,245.193L425.397,245.345L425.523,245.501L425.648,245.665L425.771,245.836L425.89,246.012L426.008,246.196L426.123,246.389L426.233,246.587L426.34,246.793L426.443,247.008L426.541,247.23L426.633,247.461L426.718,247.699L426.796,247.944L426.866,248.195L426.929,248.457L426.982,248.723L427.026,248.994L427.059,249.275L427.081,249.559L427.092,249.845L427.09,250.134L427.077,250.425L427.051,250.717L427.012,251.011L426.961,251.301L426.898,251.588L426.823,251.871L426.736,252.15L426.638,252.425L426.531,252.69L426.414,252.948L426.288,253.201L426.154,253.442L426.014,253.676L425.866,253.901L425.714,254.115L425.558,254.319L425.397,254.515L425.232,254.702L425.065,254.879L424.896,255.048L424.725,255.207L424.554,255.359L424.381,255.502L424.208,255.638L424.036,255.766L423.862,255.888L423.689,256.003L423.516,256.112L423.344,256.215L423.173,256.312L423.003,256.404L422.832,256.491L422.662,256.574L422.493,256.652L422.324,256.726L422.156,256.796L421.99,256.862L421.823,256.924L421.656,256.984L421.489,257.04L421.323,257.093L421.158,257.143L420.992,257.191L420.826,257.236L420.66,257.279L420.495,257.319L420.329,257.357L420.188,257.387L419.985,257.43L419.807,257.468L419.63,257.507L419.452,257.547L419.274,257.587L419.097,257.629L418.919,257.671L418.741,257.714L418.564,257.757L418.391,257.8L418.03,257.892L417.674,257.985L417.317,258.081L416.96,258.18L416.602,258.281L416.243,258.385L415.884,258.49L415.524,258.599L415.163,258.709L414.801,258.821L414.438,258.935L414.073,259.051L413.708,259.169L413.34,259.288L412.972,259.409L412.602,259.532L412.232,259.655L411.482,259.906L409.962,260.418L409.191,260.677L408.414,260.936L408.017,261.067L407.621,261.196L407.222,261.325L406.821,261.454L406.417,261.582L406.01,261.709L405.6,261.835L405.187,261.961L404.772,262.084L404.353,262.207L403.931,262.327L403.506,262.446L403.078,262.563L402.647,262.678L402.218,262.789L401.994,262.846L401.774,262.9L401.554,262.954L401.333,263.008L401.111,263.06L400.888,263.112L400.664,263.163L400.439,263.214L400.213,263.263L399.987,263.312L399.759,263.36L399.53,263.407L399.301,263.453L399.072,263.498L398.84,263.543L398.608,263.586L398.375,263.628L398.141,263.67L397.906,263.71L397.67,263.749L397.433,263.788L397.196,263.825L396.957,263.861L396.717,263.896L396.477,263.93L396.235,263.962L395.992,263.993L395.749,264.024L395.505,264.052L395.259,264.08L395.013,264.106L394.765,264.131L394.517,264.155L394.274,264.177L393.675,264.228L393.083,264.278L392.491,264.327L391.899,264.375L391.306,264.421L390.715,264.468L390.123,264.513L389.531,264.557L388.94,264.6L388.349,264.643L387.757,264.685L387.165,264.726L385.985,264.806L384.804,264.883L383.623,264.957L382.444,265.029L381.265,265.098L380.086,265.165L378.908,265.23L377.731,265.292L376.555,265.354L375.378,265.413L373.967,265.483L372.554,265.55L371.141,265.614L369.729,265.676L368.316,265.736L366.904,265.794L365.492,265.85L364.079,265.903L362.667,265.954L361.255,266.003L359.843,266.05L358.431,266.095L357.019,266.137L355.607,266.178L354.195,266.217L352.783,266.254L351.491,266.286L350.198,266.316L348.905,266.344L347.612,266.37L346.319,266.393L345.026,266.415L343.733,266.434L342.44,266.452L341.147,266.467L339.854,266.481L338.561,266.492L337.267,266.501L335.974,266.509L334.681,266.514L333.388,266.517L332.094,266.518L330.926,266.517L329.758,266.514L328.589,266.509L327.421,266.502L326.252,266.493L325.083,266.482L323.914,266.469L322.745,266.454L321.576,266.436L320.407,266.417L319.238,266.395L318.068,266.371L316.899,266.345L315.73,266.317L314.56,266.286L313.388,266.253L312.568,266.228L311.746,266.2L310.925,266.169L310.106,266.136L309.287,266.101L308.469,266.063L307.653,266.023L306.837,265.982L306.022,265.938L305.209,265.893L304.397,265.846L303.585,265.798L302.775,265.749L301.966,265.699L301.157,265.647L300.375,265.597L300.259,265.59L300.162,265.586L300.057,265.583L299.945,265.581L299.826,265.581L299.701,265.582L299.569,265.584L299.431,265.587L299.287,265.592L299.137,265.599L298.982,265.606L298.822,265.615L298.656,265.625L298.49,265.636L298.127,265.661L297.752,265.689L297.36,265.718L296.951,265.749L296.531,265.779L296.308,265.794L296.086,265.808L295.858,265.821L295.628,265.833L295.393,265.843L295.154,265.853L294.911,265.86L294.664,265.866L294.413,265.869L294.158,265.87L293.899,265.868L293.635,265.862L293.367,265.854L293.095,265.841L292.829,265.825L292.678,265.813L292.537,265.802L292.394,265.789L292.251,265.775L292.107,265.76L291.961,265.743L291.814,265.724L291.666,265.704L291.516,265.682L291.366,265.659L291.215,265.633L291.062,265.606L290.908,265.577L290.753,265.546L290.598,265.512L290.441,265.477L290.283,265.439L290.124,265.399L289.964,265.357L289.804,265.312L289.642,265.264L289.48,265.214L289.317,265.161L289.153,265.105L288.988,265.046L288.824,264.985L288.658,264.92L288.492,264.852L288.326,264.781L288.159,264.706L287.993,264.629L287.827,264.548L287.66,264.464L287.494,264.376L287.328,264.285L287.163,264.19L286.998,264.092L286.835,263.991L286.671,263.885L286.508,263.776L286.348,263.664L286.188,263.548L286.029,263.428L285.873,263.305L285.718,263.179L285.564,263.049L285.413,262.916L285.264,262.78L285.116,262.64L284.942,262.469L284.766,262.284L284.563,262.05L284.364,261.795L284.171,261.521L283.989,261.228L283.819,260.918L283.661,260.588L283.524,260.25L283.405,259.901L283.305,259.537L283.229,259.174L283.174,258.811L283.142,258.455L283.129,258.102L283.137,257.758L283.161,257.427L283.202,257.108L283.256,256.806L283.32,256.522L283.411,256.192L283.559,255.763L283.745,255.331L283.94,254.952L284.136,254.624L284.329,254.335L284.518,254.08L284.7,253.855L284.876,253.654L285.045,253.473L285.206,253.311L285.362,253.163L285.514,253.026L285.66,252.9L285.802,252.782L285.939,252.673L286.073,252.57L286.206,252.471L286.336,252.378L286.463,252.289L286.587,252.205L286.711,252.123L286.834,252.043L286.956,251.966L287.077,251.891L287.197,251.818L287.327,251.742L287.554,251.61L287.792,251.477L288.03,251.348L288.269,251.223L288.509,251.1L288.75,250.979L288.991,250.861L289.234,250.745L289.479,250.63L289.725,250.516L289.971,250.405L290.219,250.295L290.467,250.186L290.715,250.079L290.964,249.973L291.213,249.868L291.461,249.765L291.708,249.664L291.955,249.564L292.201,249.466L292.445,249.37L292.686,249.276L292.926,249.183L293.164,249.093L293.398,249.004L293.629,248.918L293.857,248.834L294.081,248.752L294.301,248.673L294.516,248.596L294.727,248.521L294.933,248.449L295.134,248.38L295.33,248.314L295.52,248.25L295.704,248.189L295.885,248.13L296.059,248.075L296.229,248.022L296.397,247.971L296.562,247.922L296.727,247.875L296.897,247.828L297.079,247.781L297.286,247.732L297.485,247.69L297.79,247.633L298.051,247.584L298.312,247.538L298.572,247.492L298.834,247.447L299.095,247.404L299.356,247.361L299.617,247.32L299.879,247.28L300.14,247.241L300.402,247.203L300.664,247.166L300.926,247.13L301.187,247.095L301.45,247.06L301.712,247.027L301.974,246.995L302.236,246.964L302.499,246.934L302.761,246.904L303.023,246.876L303.286,246.849L303.548,246.822L303.811,246.796L304.073,246.771L304.335,246.747L304.598,246.724L304.865,246.701L305.385,246.659L305.911,246.619L306.436,246.583L306.96,246.55L307.485,246.519L308.009,246.491L308.533,246.465L309.057,246.442L309.58,246.422L310.103,246.404L310.625,246.388L311.147,246.374L311.668,246.362L312.189,246.352L312.709,246.344L313.228,246.338L313.746,246.333L314.264,246.33L314.781,246.328L315.296,246.328L315.811,246.329L316.324,246.331L316.837,246.335L317.348,246.339L317.858,246.345L318.369,246.351L319.381,246.366L320.388,246.383L321.39,246.402L322.385,246.422L324.352,246.463L325.323,246.483L326.286,246.501L327.241,246.517L327.713,246.523L328.183,246.53L328.651,246.535L329.115,246.539L329.578,246.543L330.039,246.545L332.282,246.553L334.527,246.559L336.773,246.563L339.02,246.566L341.267,246.567L342.679,246.566L342.747,246.278L342.923,245.753L343.147,245.246L343.417,244.762L343.73,244.305L344.084,243.878L344.476,243.486L344.902,243.132L345.359,242.819L345.844,242.549L346.351,242.326L346.876,242.149L347.416,242.023L347.964,241.946L348.518,241.92L377.818,241.92L381.098,241.922L384.378,241.926Z" style="fill:rgb(221,0,0);"/>
            <path d="M427.89,195.739L428.145,195.751L428.401,195.769L428.659,195.796L428.917,195.829L429.176,195.87L429.434,195.919L429.691,195.975L429.948,196.038L430.203,196.109L430.456,196.187L430.706,196.272L430.954,196.364L431.2,196.463L431.441,196.569L431.679,196.68L431.913,196.797L432.177,196.939L432.442,197.094L432.743,197.294L433.039,197.515L433.332,197.763L433.618,198.037L433.89,198.332L434.144,198.645L434.381,198.978L434.596,199.327L434.783,199.679L434.947,200.041L435.085,200.403L435.197,200.759L435.284,201.105L435.35,201.444L435.396,201.774L435.424,202.087L435.437,202.388L435.436,202.669L435.424,202.936L435.403,203.191L435.374,203.434L435.338,203.662L435.298,203.871L435.253,204.074L435.206,204.265L435.156,204.443L435.093,204.647L434.996,204.928L434.884,205.213L434.77,205.475L434.655,205.714L434.542,205.935L434.428,206.144L434.314,206.34L434.202,206.524L434.09,206.701L433.978,206.87L433.866,207.034L433.754,207.191L433.643,207.344L433.53,207.495L433.418,207.641L433.305,207.785L433.191,207.927L433.076,208.067L432.961,208.206L432.844,208.343L432.727,208.479L432.609,208.614L432.49,208.748L432.37,208.882L432.248,209.015L432.126,209.148L432.002,209.281L431.873,209.419L431.626,209.677L431.369,209.941L431.108,210.205L430.844,210.468L430.576,210.731L430.304,210.994L430.03,211.257L429.754,211.519L429.475,211.781L429.195,212.042L428.914,212.302L428.631,212.56L428.349,212.817L428.067,213.071L427.785,213.324L427.505,213.574L427.226,213.821L426.95,214.065L426.674,214.307L426.139,214.773L425.62,215.223L425.122,215.651L424.65,216.055L423.81,216.771L423.133,217.348L422.879,217.566L422.686,217.733L422.634,217.78L421.391,219.029L420.733,219.689L420.076,220.347L419.419,221.005L418.762,221.661L418.105,222.315L417.447,222.969L416.789,223.621L416.131,224.272L415.472,224.922L414.813,225.571L414.153,226.218L413.493,226.864L412.832,227.509L412.169,228.152L411.506,228.795L410.842,229.435L410.177,230.075L409.511,230.713L408.844,231.349L408.175,231.984L407.505,232.618L406.833,233.25L406.16,233.881L405.486,234.51L404.809,235.137L404.131,235.763L403.451,236.388L402.77,237.011L402.086,237.632L401.4,238.252L400.712,238.87L400.022,239.486L399.329,240.101L398.635,240.714L397.938,241.325L397.24,241.933L396.887,242.238L396.536,242.542L396.183,242.845L395.831,243.148L395.477,243.45L395.123,243.752L394.768,244.053L394.413,244.354L394.056,244.654L393.699,244.954L393.342,245.253L392.983,245.552L392.624,245.851L392.264,246.149L391.903,246.446L391.542,246.744L391.179,247.04L390.816,247.336L390.452,247.632L390.087,247.927L389.722,248.221L389.355,248.515L388.988,248.809L388.62,249.102L388.251,249.394L387.881,249.687L387.51,249.978L387.139,250.269L386.766,250.56L386.393,250.849L386.018,251.139L385.643,251.428L385.267,251.716L384.89,252.004L384.511,252.291L384.132,252.578L383.752,252.864L383.371,253.15L382.989,253.435L382.606,253.719L382.222,254.003L381.837,254.287L381.451,254.57L381.064,254.852L380.676,255.134L380.286,255.415L379.896,255.695L379.505,255.975L379.112,256.255L378.719,256.534L378.324,256.812L377.93,257.089L376.988,257.747L376.046,258.404L375.101,259.06L374.153,259.715L373.204,260.368L372.726,260.696L372.249,261.022L371.771,261.348L371.292,261.673L370.812,261.998L370.331,262.322L369.85,262.646L369.368,262.969L368.884,263.291L368.4,263.613L367.915,263.934L367.429,264.254L366.941,264.574L366.453,264.892L365.964,265.21L365.473,265.527L364.982,265.843L364.489,266.157L363.995,266.471L363.5,266.784L363.004,267.096L362.5,267.411L362.284,267.544L362.061,267.679L361.838,267.812L361.615,267.942L361.394,268.069L361.172,268.194L360.951,268.317L360.731,268.438L360.511,268.556L360.292,268.673L360.074,268.788L359.857,268.9L359.641,269.011L359.425,269.12L359.21,269.227L358.997,269.333L358.784,269.437L358.568,269.541L358.154,269.74L357.738,269.935L357.328,270.126L356.923,270.313L356.522,270.496L355.73,270.856L355.377,271.015L355.015,271.174L354.652,271.331L354.291,271.484L353.93,271.634L353.57,271.781L353.21,271.925L352.852,272.066L352.494,272.205L352.137,272.341L351.782,272.475L351.427,272.607L351.074,272.736L350.721,272.863L350.371,272.989L349.985,273.125L349.779,273.194L349.499,273.277L349.153,273.364L348.769,273.436L348.436,273.479L348.106,273.506L347.713,273.515L347.231,273.493L346.96,273.457L346.65,273.408L346.344,273.342L346.334,273.34L345.948,273.233L345.57,273.1L345.561,273.097L345.271,272.975L344.987,272.838L344.711,272.686L344.703,272.682L344.38,272.48L344.07,272.257L343.775,272.015L343.769,272.01L343.468,271.727L343.187,271.425L342.928,271.104L342.923,271.098L342.681,270.752L342.464,270.389L342.272,270.012L342.269,270.005L342.11,269.63L341.978,269.245L341.871,268.853L341.869,268.845L341.802,268.514L341.752,268.181L341.722,267.845L341.722,267.836L341.71,267.4L341.731,266.965L341.732,266.956L341.77,266.617L341.827,266.282L341.829,266.271L341.892,265.989L341.969,265.71L342.037,265.484L342.188,265.093L342.364,264.708L342.595,264.289L342.822,263.941L343.014,263.678L343.18,263.47L343.325,263.299L343.456,263.152L343.576,263.024L343.687,262.909L343.792,262.803L343.894,262.703L344.001,262.6L344.181,262.432L344.367,262.263L344.55,262.1L344.732,261.94L344.915,261.783L345.1,261.625L345.455,261.325L346.135,260.755L346.439,260.498L346.568,260.388L346.685,260.286L346.785,260.199L346.863,260.129L346.915,260.082L346.955,260.044L347.169,259.835L347.383,259.625L347.58,259.43L347.761,259.249L347.926,259.082L348.077,258.927L348.216,258.783L348.343,258.65L348.46,258.525L348.569,258.407L348.671,258.295L348.768,258.187L348.863,258.08L348.956,257.973L349.05,257.864L349.144,257.755L349.355,257.506L349.585,257.231L349.847,256.919L350.143,256.572L350.31,256.376L350.486,256.172L350.673,255.957L350.873,255.729L351.086,255.488L351.313,255.233L351.555,254.963L351.816,254.675L352.07,254.398L352.327,254.121L352.584,253.849L352.84,253.581L353.096,253.316L353.352,253.056L353.608,252.799L353.864,252.546L354.12,252.296L354.375,252.051L354.631,251.808L354.886,251.569L355.141,251.334L355.397,251.101L355.652,250.872L355.907,250.646L356.162,250.422L356.417,250.202L356.671,249.984L356.926,249.769L357.18,249.556L357.435,249.346L357.689,249.138L357.943,248.933L358.198,248.729L358.452,248.528L358.706,248.328L358.961,248.13L359.215,247.934L359.469,247.74L359.724,247.546L359.978,247.354L360.233,247.164L360.488,246.974L360.743,246.785L361.001,246.595L361.51,246.223L362.024,245.85L362.541,245.477L363.06,245.104L364.11,244.351L364.641,243.969L365.179,243.582L365.722,243.189L366.272,242.788L366.833,242.376L367.112,242.17L367.396,241.959L367.683,241.745L367.972,241.529L368.263,241.309L368.563,241.082L368.922,240.83L369.298,240.605L369.69,240.408L370.095,240.241L370.511,240.103L370.936,239.996L371.367,239.92L371.803,239.876L372.242,239.864L372.679,239.884L373.115,239.936L373.545,240.02L373.968,240.134L374.381,240.28L374.783,240.455L375.171,240.659L375.543,240.89L375.897,241.149L376.231,241.432L376.544,241.739L376.833,242.068L377.098,242.418L377.287,242.709L377.62,242.456L377.977,242.184L378.333,241.911L378.689,241.637L379.043,241.363L379.397,241.089L379.75,240.813L380.103,240.537L380.454,240.261L380.805,239.984L381.156,239.706L381.505,239.428L381.854,239.149L382.202,238.87L382.549,238.59L382.896,238.309L383.242,238.028L383.588,237.746L383.933,237.464L384.277,237.182L384.62,236.898L384.963,236.614L385.306,236.33L385.648,236.045L385.989,235.759L386.329,235.473L386.67,235.186L387.009,234.899L387.348,234.611L387.687,234.323L388.024,234.034L388.362,233.744L388.699,233.454L389.035,233.164L389.369,232.874L390.042,232.288L390.71,231.702L391.377,231.114L392.042,230.524L392.706,229.931L393.368,229.336L394.028,228.739L394.688,228.14L395.346,227.539L396.002,226.936L396.658,226.331L397.312,225.724L397.966,225.114L398.618,224.503L399.27,223.889L399.921,223.274L400.571,222.656L401.221,222.037L401.87,221.416L402.518,220.792L403.166,220.167L403.814,219.539L404.033,219.326L403.982,219.265L403.722,218.912L403.489,218.541L403.283,218.154L403.106,217.753L402.959,217.34L402.843,216.918L402.758,216.488L402.704,216.053L402.682,215.615L402.692,215.177L402.734,214.741L402.808,214.309L402.913,213.884L403.049,213.467L403.215,213.061L403.411,212.669L403.634,212.292L403.884,211.932L404.16,211.591L404.46,211.272L404.783,210.975L405.126,210.703L406.259,209.869L407.391,209.034L409.663,207.357L410.805,206.516L411.379,206.094L411.954,205.673L412.53,205.252L413.107,204.831L413.686,204.41L414.253,204L414.306,203.962L414.347,203.931L414.391,203.898L414.437,203.863L414.484,203.825L414.535,203.785L414.587,203.743L414.633,203.705L414.754,203.604L414.874,203.502L415,203.392L415.131,203.275L415.268,203.15L415.41,203.019L415.557,202.882L415.709,202.74L415.864,202.591L416.021,202.44L416.357,202.115L417.065,201.425L417.437,201.065L417.633,200.876L417.83,200.688L418.031,200.498L418.236,200.306L418.445,200.113L418.658,199.919L418.876,199.724L419.099,199.527L419.327,199.331L419.56,199.134L419.791,198.944L419.92,198.84L420.042,198.742L420.168,198.643L420.294,198.546L420.422,198.448L420.552,198.35L420.684,198.253L420.817,198.157L420.954,198.06L421.091,197.964L421.231,197.869L421.374,197.774L421.518,197.68L421.666,197.586L421.816,197.493L421.967,197.401L422.123,197.309L422.281,197.219L422.441,197.13L422.605,197.042L422.772,196.955L422.943,196.87L423.116,196.786L423.293,196.704L423.473,196.624L423.658,196.546L423.846,196.469L424.038,196.396L424.233,196.325L424.433,196.256L424.637,196.191L424.845,196.129L425.056,196.07L425.273,196.015L425.493,195.964L425.716,195.917L425.944,195.875L426.176,195.838L426.411,195.806L426.65,195.78L426.893,195.759L427.138,195.744L427.386,195.736L427.637,195.734L427.89,195.739Z" style="fill:rgb(221,0,0);"/>
        </g>
    </g>
</svg>
